<svg width="52" height="52" viewBox="0 0 52 52" fill="none" xmlns="http://www.w3.org/2000/svg">
<g id="Group 565">
<path id="Vector" d="M21.6269 15.7504C21.6269 17.2504 21.6269 18.7042 22.1 20.0658C17.1269 25.9042 3.99615 41.3312 2.77308 42.5081C2.52999 42.7262 2.33553 42.993 2.20234 43.2912C2.06915 43.5894 2.00021 43.9123 2 44.2388C2 45.2196 2.6 46.1658 3.10769 46.6965C3.86923 47.4927 7.12308 50.5042 7.72308 49.9273C9.5 48.1965 9.85769 47.735 10.5846 47.0196C11.6808 45.9465 10.4692 43.7542 10.85 42.8658C11.2308 41.9773 11.6346 41.8042 12.2923 41.6658C12.95 41.5273 14.1154 42.0004 15.0269 42.0119C15.9846 42.0235 16.5038 41.6196 17.2192 40.9504C17.7962 40.4196 18.2115 39.9235 18.2231 39.1504C18.2462 38.1119 16.7462 36.7388 17.8654 35.6427C18.9846 34.5465 20.6 36.3581 21.7885 36.2196C22.9769 36.0812 24.4192 34.4312 24.5692 33.7273C24.7192 33.0235 23.2192 31.2119 23.45 30.185C23.5308 29.8388 24.2346 29.0312 24.7654 28.9158C25.2962 28.8004 27.65 29.7119 28.1808 29.5965C28.8269 29.4581 29.5769 28.7773 30.1885 28.3965C31.9769 29.1696 33.6038 29.4812 35.6923 29.4812C43.5962 29.4812 50 23.3196 50 15.7273C50 8.135 43.5962 2 35.6923 2C27.7885 2 21.6269 8.15808 21.6269 15.7504V15.7504ZM42.6154 13.0769C42.6154 13.8072 42.3988 14.5211 41.9931 15.1283C41.5874 15.7355 41.0107 16.2087 40.3361 16.4882C39.6614 16.7676 38.919 16.8408 38.2027 16.6983C37.4865 16.5558 36.8286 16.2042 36.3122 15.6878C35.7958 15.1714 35.4442 14.5135 35.3017 13.7973C35.1592 13.081 35.2324 12.3386 35.5118 11.6639C35.7913 10.9893 36.2645 10.4126 36.8717 10.0069C37.4789 9.60117 38.1928 9.38462 38.9231 9.38462C39.9023 9.38462 40.8415 9.77363 41.5339 10.4661C42.2264 11.1585 42.6154 12.0977 42.6154 13.0769Z" stroke="#031F68" stroke-width="4" stroke-linejoin="round"/>
</g>
</svg>
