<svg width="48" height="48" viewBox="0 0 48 48" fill="none" xmlns="http://www.w3.org/2000/svg">
<g clip-path="url(#clip0_32_16411)">
<path d="M22.3037 38.5162H7.49707C5.43018 38.5162 3.74854 36.8346 3.74854 34.7677V34.5806C3.74854 32.5133 5.43018 30.8317 7.49707 30.8317H11.3291C12.364 30.8317 13.2034 29.9927 13.2034 28.9574V10.3085H40.4843C42.5511 10.3085 44.2328 11.9901 44.2328 14.057V24.928C44.2328 25.9629 45.0721 26.8022 46.1071 26.8022C47.1423 26.8022 47.9813 25.9629 47.9813 24.928V14.057C47.9813 9.92322 44.6184 6.55994 40.4843 6.55994H13.2034V1.87427C13.2034 0.838989 12.364 0 11.3291 0H7.49707C3.36328 0 0 3.36328 0 7.49707V34.7677C0 38.9019 3.36328 42.2648 7.49707 42.2648H22.3037C23.339 42.2648 24.178 41.4258 24.178 40.3905C24.178 39.3556 23.339 38.5162 22.3037 38.5162ZM3.74854 7.49707C3.74854 5.43018 5.43018 3.74854 7.49707 3.74854H9.45483V27.0831H7.49707C6.13257 27.0831 4.85193 27.4497 3.74854 28.0895V7.49707ZM47.1991 38.9674L45.3732 37.6663C45.3765 37.5747 45.3783 37.4832 45.3783 37.392C45.3783 37.2792 45.3746 37.1664 45.3699 37.054C45.3684 37.021 45.3666 36.988 45.3647 36.9554C45.3629 36.928 45.3622 36.9005 45.3604 36.8734L47.2178 35.5411C47.9963 34.983 48.2285 33.9276 47.7565 33.0945L46.801 31.4073C46.3455 30.6031 45.3713 30.2509 44.5067 30.5782L42.3691 31.3872C42.1772 31.2437 41.978 31.1111 41.774 30.9869C41.7704 30.9847 41.7671 30.9825 41.7638 30.9803C41.6781 30.9283 41.5909 30.8789 41.5031 30.8306C41.4778 30.8163 41.4525 30.802 41.4269 30.7881C41.3489 30.7463 41.2705 30.7064 41.1914 30.6672C41.1533 30.6486 41.1152 30.6299 41.0771 30.6116C41.0405 30.5944 41.005 30.5753 40.968 30.5588L40.5692 28.3444C40.4084 27.4515 39.6317 26.8019 38.7246 26.8019H36.9441C36.0092 26.8019 35.2174 27.4907 35.0878 28.4165L34.7878 30.5607C34.236 30.8104 33.717 31.1265 33.2406 31.5026L31.0657 30.8232C30.1809 30.5468 29.2269 30.9591 28.8215 31.7922L28.0221 33.4358C27.6171 34.2682 27.88 35.2712 28.6414 35.7975L30.3937 37.0089C30.3875 37.1356 30.3838 37.2634 30.3838 37.392C30.3838 37.5066 30.3875 37.6212 30.3926 37.7358C30.3944 37.7754 30.3973 37.8149 30.3995 37.8545C30.4021 37.8948 30.4036 37.9354 30.4069 37.9757L28.63 39.3977C27.91 39.9738 27.7159 40.9871 28.1719 41.7883L29.024 43.2858C29.4767 44.0812 30.4376 44.4335 31.2975 44.1185L33.3527 43.3663C33.8002 43.7062 34.2836 43.994 34.7944 44.2251L35.1932 46.4392C35.3536 47.332 36.1307 47.9817 37.0378 47.9817H38.7246C39.6453 47.9817 40.4297 47.3126 40.5754 46.4033L40.9208 44.2449C40.9669 44.2244 41.012 44.2024 41.0574 44.1808C41.0889 44.1661 41.1207 44.1519 41.1519 44.1368C41.2321 44.0973 41.3115 44.0566 41.3903 44.0145C41.458 43.9783 41.525 43.9406 41.5917 43.9021C41.5979 43.8988 41.6041 43.8951 41.61 43.8918C41.9766 43.6805 42.3248 43.441 42.6489 43.1733L44.8403 43.8025C45.7083 44.0515 46.6296 43.6469 47.0336 42.8397L47.7876 41.3324C48.201 40.5066 47.9513 39.5032 47.1991 38.9674ZM40.6051 39.8994C40.3414 40.2341 39.9954 40.5143 39.5955 40.7238C39.5834 40.73 39.5709 40.7362 39.5585 40.7428C39.4874 40.7787 39.4153 40.8127 39.3413 40.8442C39.323 40.8519 39.304 40.8589 39.2856 40.8662C39.2274 40.89 39.1681 40.9124 39.108 40.9332C39.0831 40.9417 39.0582 40.9504 39.0333 40.9585C38.9575 40.9827 38.8806 41.0057 38.8026 41.0255C38.5078 41.1002 38.1991 41.1405 37.8812 41.1405C37.5337 41.1405 37.1979 41.0918 36.8782 41.0028C36.8247 40.9882 36.7712 40.972 36.7185 40.9548C36.6885 40.9449 36.6584 40.9351 36.6288 40.9244C36.5819 40.9076 36.5354 40.8896 36.4893 40.8713C36.4442 40.8534 36.3999 40.8344 36.356 40.8146C36.3149 40.7963 36.2739 40.7776 36.2336 40.7578C36.1989 40.7406 36.1648 40.723 36.1307 40.7051C36.0974 40.6875 36.0645 40.6688 36.0315 40.6501C35.9846 40.6234 35.9381 40.5959 35.8927 40.5674C35.8524 40.5421 35.8125 40.5165 35.7733 40.4897C35.7422 40.4681 35.7114 40.4462 35.681 40.4238C35.6484 40.4 35.6162 40.3759 35.5844 40.351C35.5569 40.3297 35.5294 40.3085 35.5027 40.2865C35.4507 40.244 35.4001 40.1997 35.3503 40.1543C35.3269 40.1327 35.3042 40.1104 35.2811 40.0884C35.2467 40.0551 35.213 40.0214 35.1797 39.9866C34.7256 39.5138 34.3938 38.9231 34.2363 38.2646C34.2235 38.2115 34.2118 38.1577 34.2012 38.1039C34.1975 38.0834 34.1938 38.0625 34.1902 38.042C34.181 37.9907 34.1733 37.9398 34.1664 37.8882C34.1635 37.8669 34.1609 37.8453 34.1583 37.8241C34.1521 37.7714 34.1473 37.7183 34.1437 37.6655C34.1422 37.6461 34.1404 37.6267 34.1393 37.6073C34.1353 37.5355 34.1327 37.4637 34.1327 37.392C34.1327 37.3228 34.1345 37.2535 34.1385 37.184C34.1389 37.1755 34.14 37.1671 34.1407 37.1583C34.1444 37.0961 34.1495 37.0338 34.1569 36.9712C34.1572 36.9661 34.1583 36.9609 34.1587 36.9554C34.1664 36.8895 34.1759 36.824 34.1873 36.7581C34.188 36.7548 34.1884 36.7518 34.1891 36.7485C34.2004 36.6823 34.214 36.6167 34.229 36.5508C34.3857 35.8693 34.7285 35.2581 35.2017 34.7739C35.2152 34.7604 35.2284 34.7465 35.2416 34.7329C35.2789 34.6959 35.317 34.6597 35.3558 34.6241C35.3646 34.6161 35.3738 34.6084 35.3826 34.6003C35.4609 34.5304 35.5419 34.4634 35.6257 34.4C35.6323 34.3949 35.6389 34.3898 35.6455 34.3846C35.7814 34.2836 35.9246 34.1917 36.0732 34.1093C36.0846 34.103 36.0956 34.0968 36.1069 34.0906C36.1538 34.0653 36.2014 34.0408 36.2498 34.0173C36.2651 34.01 36.2809 34.0031 36.2963 33.9957C36.3728 33.9602 36.4504 33.9272 36.5295 33.8965C36.5614 33.884 36.5933 33.8716 36.6251 33.8602C36.6628 33.847 36.7009 33.8339 36.739 33.8218C36.7899 33.8053 36.8416 33.7903 36.8936 33.7764C37.2085 33.6903 37.5392 33.6434 37.8812 33.6434C38.2295 33.6434 38.5664 33.6921 38.8868 33.7815C38.9385 33.7958 38.9901 33.8115 39.041 33.828C39.0718 33.8379 39.1018 33.8481 39.1322 33.8588C39.1772 33.8749 39.2216 33.8921 39.2659 33.9097C39.3087 33.9269 39.3512 33.9445 39.3933 33.9631C39.438 33.9829 39.4823 34.0031 39.5262 34.0247C39.5592 34.0408 39.5914 34.0576 39.624 34.0748C39.6592 34.0935 39.6943 34.1129 39.7291 34.1327C39.7595 34.1503 39.7903 34.1671 39.8199 34.1851C39.8763 34.2195 39.9316 34.2554 39.9862 34.2924C40.0137 34.311 40.04 34.3304 40.0664 34.3495C40.1038 34.3762 40.1404 34.4037 40.1766 34.4319C40.2004 34.4502 40.2242 34.4689 40.2477 34.4879C40.3022 34.5326 40.3561 34.5784 40.4081 34.6263C40.4253 34.6417 40.4414 34.6582 40.4583 34.674C40.4993 34.7128 40.5392 34.7523 40.5784 34.7933C41.0354 35.2672 41.3683 35.8605 41.5265 36.5215C41.5386 36.5728 41.5499 36.624 41.5602 36.676C41.5646 36.6984 41.5682 36.7211 41.5723 36.7434C41.5807 36.7928 41.5884 36.8423 41.5953 36.8921C41.5983 36.9148 41.6012 36.9371 41.6038 36.9602C41.61 37.0118 41.6144 37.0638 41.6184 37.1158C41.6199 37.136 41.6217 37.1561 41.6228 37.1766C41.6268 37.2484 41.6294 37.3202 41.6294 37.392C41.6294 37.5216 41.6228 37.6512 41.6096 37.7805C41.6089 37.786 41.6078 37.7919 41.6071 37.7977C41.6012 37.8552 41.5939 37.9127 41.5851 37.9698C41.5814 37.9933 41.5767 38.016 41.5726 38.0391C41.566 38.0775 41.5594 38.116 41.5514 38.1544C41.4419 38.6825 41.2203 39.1703 40.9135 39.5918C40.801 39.6808 40.6967 39.783 40.6051 39.8994Z" fill="#031F68"/>
</g>
<defs>
<clipPath id="clip0_32_16411">
<rect width="48" height="48" fill="white"/>
</clipPath>
</defs>
</svg>
