<svg width="24" height="25" viewBox="0 0 24 25" fill="none" xmlns="http://www.w3.org/2000/svg">
<path d="M2.1484 13.163C1.78291 12.7975 1.78291 12.2027 2.14924 11.8363L10.3661 3.59912C10.7318 3.23256 10.7311 2.63893 10.3645 2.27326C9.9979 1.90764 9.40427 1.90834 9.0386 2.2749L0.822586 10.5112C-0.274055 11.6079 -0.274055 13.3922 0.821742 14.488L9.0386 22.7252C9.22179 22.9088 9.46202 23.0005 9.7024 23.0005C9.94193 23.0005 10.1816 22.9093 10.3645 22.7267C10.7311 22.3611 10.7318 21.7675 10.3661 21.4009L2.1484 13.163Z" fill="#142656"/>
<path d="M23.0625 11.5625H6.04595C5.52812 11.5625 5.1084 11.9822 5.1084 12.5C5.1084 13.0179 5.52812 13.4376 6.04595 13.4376H23.0624C23.5802 13.4376 24 13.0179 24 12.5C24 11.9822 23.5802 11.5625 23.0625 11.5625Z" fill="#142656"/>
</svg>