<svg width="32" height="32" viewBox="0 0 32 32" fill="none" xmlns="http://www.w3.org/2000/svg">
<rect width="32" height="32" rx="16" fill="#F6F6F7"/>
<path d="M18.5 19.5V21.75C18.5 22.1642 18.1642 22.5 17.75 22.5H11.25C10.8358 22.5 10.5 22.1642 10.5 21.75V13.25C10.5 12.8358 10.8358 12.5 11.25 12.5H12.5C12.8407 12.5 13.1748 12.5284 13.5 12.583M18.5 19.5H20.75C21.1642 19.5 21.5 19.1642 21.5 18.75V15.5C21.5 12.527 19.3377 10.059 16.5 9.58296C16.1748 9.5284 15.8407 9.5 15.5 9.5H14.25C13.8358 9.5 13.5 9.83579 13.5 10.25V12.583M18.5 19.5H14.25C13.8358 19.5 13.5 19.1642 13.5 18.75V12.583M21.5 17V15.75C21.5 14.5074 20.4926 13.5 19.25 13.5H18.25C17.8358 13.5 17.5 13.1642 17.5 12.75V11.75C17.5 10.5074 16.4926 9.5 15.25 9.5H14.5" stroke="#86879D" stroke-linecap="round" stroke-linejoin="round"/>
</svg>
