<svg width="731" height="731" viewBox="0 0 731 731" fill="none" xmlns="http://www.w3.org/2000/svg">
<path d="M731 559.069H0V559.434H731V559.069Z" fill="#EBEBEB"/>
<path d="M125.118 572.987H76.6965V573.352H125.118V572.987Z" fill="#EBEBEB"/>
<path d="M312.385 569.025H250.206V569.39H312.385V569.025Z" fill="#EBEBEB"/>
<path d="M164.709 578.119H136.653V578.485H164.709V578.119Z" fill="#EBEBEB"/>
<path d="M657.754 584.112H635.487V584.478H657.754V584.112Z" fill="#EBEBEB"/>
<path d="M622.461 584.112H572.329V584.478H622.461V584.112Z" fill="#EBEBEB"/>
<path d="M485.135 573.586H450.296V573.952H485.135V573.586Z" fill="#EBEBEB"/>
<path d="M346.494 493.864H64.1964C61.9849 493.86 59.8653 492.979 58.3029 491.414C56.7405 489.848 55.863 487.727 55.863 485.516V88.6851C55.8823 86.4863 56.7683 84.3838 58.3286 82.8345C59.8889 81.2851 61.9975 80.4139 64.1964 80.4102H346.494C348.708 80.4102 350.831 81.2897 352.397 82.8552C353.963 84.4208 354.842 86.5441 354.842 88.7582V485.516C354.842 487.73 353.963 489.853 352.397 491.419C350.831 492.984 348.708 493.864 346.494 493.864ZM64.1964 80.7026C62.0819 80.7064 60.0552 81.5491 58.5614 83.0457C57.0675 84.5423 56.2285 86.5705 56.2285 88.6851V485.516C56.2285 487.63 57.0675 489.658 58.5614 491.155C60.0552 492.652 62.0819 493.494 64.1964 493.498H346.494C348.61 493.494 350.638 492.652 352.134 491.156C353.63 489.66 354.473 487.632 354.477 485.516V88.6851C354.473 86.5692 353.63 84.541 352.134 83.0449C350.638 81.5487 348.61 80.7064 346.494 80.7026H64.1964Z" fill="#EBEBEB"/>
<path d="M662.739 493.864H380.427C378.214 493.86 376.093 492.979 374.528 491.414C372.964 489.85 372.083 487.729 372.079 485.516V88.6851C372.102 86.4849 372.991 84.3825 374.554 82.8336C376.117 81.2846 378.227 80.4139 380.427 80.4102H662.739C664.936 80.4178 667.041 81.2906 668.598 82.8396C670.155 84.3886 671.039 86.4888 671.058 88.6851V485.516C671.058 487.725 670.183 489.844 668.623 491.408C667.064 492.973 664.948 493.856 662.739 493.864ZM380.427 80.7026C378.311 80.7064 376.283 81.5487 374.787 83.0449C373.291 84.541 372.448 86.5692 372.445 88.6851V485.516C372.448 487.632 373.291 489.66 374.787 491.156C376.283 492.652 378.311 493.494 380.427 493.498H662.739C664.855 493.494 666.883 492.652 668.38 491.156C669.876 489.66 670.718 487.632 670.722 485.516V88.6851C670.718 86.5692 669.876 84.541 668.38 83.0449C666.883 81.5487 664.855 80.7064 662.739 80.7026H380.427Z" fill="#EBEBEB"/>
<path d="M398.22 559.069H449.536V367.942H398.22V559.069Z" fill="#E6E6E6"/>
<path d="M406.758 559.069H398.219V541.861H415.72L406.758 559.069Z" fill="#F0F0F0"/>
<path d="M607.081 559.069H658.397V367.942H607.081V559.069Z" fill="#E6E6E6"/>
<path d="M398.219 552.46H614.537V367.941H398.219V552.46Z" fill="#F0F0F0"/>
<path d="M404.856 426.714H607.914V376.114H404.856V426.714Z" fill="#E6E6E6"/>
<path d="M496.788 391.817H515.97C524.303 391.817 532.271 385.574 538.002 374.55H474.756C480.487 385.603 488.455 391.817 496.788 391.817Z" fill="#F0F0F0"/>
<path d="M605.999 559.069H614.537V541.861H597.037L605.999 559.069Z" fill="#F0F0F0"/>
<path d="M404.856 485.501H607.914V434.901H404.856V485.501Z" fill="#E6E6E6"/>
<path d="M496.788 450.618H515.97C524.303 450.618 532.271 444.375 538.002 433.352H474.756C480.487 444.448 488.455 450.618 496.788 450.618Z" fill="#F0F0F0"/>
<path d="M404.856 544.288H607.914V493.688H404.856V544.288Z" fill="#E6E6E6"/>
<path d="M496.788 509.405H515.97C524.303 509.405 532.271 503.162 538.002 492.139H474.756C480.487 503.162 488.455 509.405 496.788 509.405Z" fill="#F0F0F0"/>
<path d="M600.838 284.446H486.626L480.106 363.57H594.317L600.838 284.446Z" fill="#E6E6E6"/>
<path d="M594.318 363.57L593.85 367.941H479.639L480.107 363.57H594.318Z" fill="#E6E6E6"/>
<path d="M597.315 284.446H483.118L476.598 363.57H590.809L597.315 284.446Z" fill="#F0F0F0"/>
<path d="M588.5 358.41L593.266 289.871C593.299 289.654 593.286 289.433 593.229 289.222C593.172 289.011 593.071 288.813 592.934 288.643C592.796 288.472 592.625 288.332 592.43 288.232C592.236 288.131 592.022 288.072 591.804 288.058H486.847C486.452 288.077 486.08 288.247 485.808 288.533C485.536 288.819 485.384 289.198 485.385 289.593L480.648 358.19C480.619 358.406 480.635 358.626 480.694 358.835C480.753 359.045 480.854 359.24 480.99 359.41C481.127 359.579 481.297 359.719 481.489 359.821C481.682 359.923 481.893 359.985 482.11 360.003H587.096C587.489 359.966 587.853 359.781 588.114 359.485C588.374 359.188 588.512 358.804 588.5 358.41Z" fill="white"/>
<path d="M561.043 363.57L560.59 367.941H434.814L435.282 363.57H561.043Z" fill="#F0F0F0"/>
<path d="M77.3539 559.069H117.106L117.106 441.714H77.3539L77.3539 559.069Z" fill="#E6E6E6"/>
<path d="M84.9133 559.069H77.3547V531.071H92.8227L84.9133 559.069Z" fill="#F0F0F0"/>
<path d="M304.155 559.069H343.907V441.714H304.155V559.069Z" fill="#E6E6E6"/>
<path d="M77.3688 551.422H310.748V441.714H77.3688V551.422Z" fill="#F0F0F0"/>
<path d="M303.189 559.069H310.748V531.071H295.28L303.189 559.069Z" fill="#F0F0F0"/>
<path d="M233.803 453.279V538.864H302.985V453.279H233.803Z" fill="#E6E6E6"/>
<path d="M261.552 457.869H275.237C281.118 457.886 286.766 455.567 290.939 451.422H245.836C247.903 453.477 250.355 455.105 253.052 456.211C255.749 457.317 258.637 457.881 261.552 457.869Z" fill="#F0F0F0"/>
<path d="M159.461 453.279V538.864H228.643V453.279H159.461Z" fill="#E6E6E6"/>
<path d="M186.508 457.869H200.192C203.107 457.881 205.996 457.317 208.693 456.211C211.389 455.105 213.842 453.477 215.909 451.422H170.791C172.859 453.476 175.312 455.103 178.008 456.209C180.705 457.315 183.593 457.879 186.508 457.869Z" fill="#F0F0F0"/>
<path d="M85.1172 453.279V538.864H154.299V453.279H85.1172Z" fill="#E6E6E6"/>
<path d="M112.165 457.869H125.849C128.764 457.881 131.652 457.317 134.349 456.211C137.046 455.105 139.498 453.477 141.565 451.422H96.4919C100.659 455.557 106.294 457.875 112.165 457.869Z" fill="#F0F0F0"/>
<path d="M234.577 374.579H193.583C188.488 374.579 184.358 378.709 184.358 383.804V432.314C184.358 437.408 188.488 441.539 193.583 441.539H234.577C239.672 441.539 243.803 437.408 243.803 432.314V383.804C243.803 378.709 239.672 374.579 234.577 374.579Z" fill="#F5F5F5"/>
<path d="M297.049 390.033H265.528C261.604 390.033 258.423 393.214 258.423 397.138V434.434C258.423 438.358 261.604 441.539 265.528 441.539H297.049C300.973 441.539 304.154 438.358 304.154 434.434V397.138C304.154 393.214 300.973 390.033 297.049 390.033Z" fill="#F5F5F5"/>
<path d="M89.5332 415.998C89.5332 415.998 90.9952 441.539 147.194 441.539C203.394 441.539 204.856 415.998 204.856 415.998H89.5332Z" fill="#F0F0F0"/>
<path d="M107.15 345.135H323.789L323.789 110.601L107.15 110.601L107.15 345.135Z" fill="#E6E6E6"/>
<path d="M100.542 345.135H320.705L320.705 110.601L100.542 110.601L100.542 345.135Z" fill="#F0F0F0"/>
<path d="M107.15 355.018H323.789V345.149H107.15V355.018Z" fill="#E6E6E6"/>
<path d="M89.5474 355.018H309.71V345.149H89.5474V355.018Z" fill="#F0F0F0"/>
<path d="M311.45 335.881V119.855L109.797 119.855V335.881H311.45Z" fill="#FAFAFA"/>
<path d="M265.982 335.881L240.236 119.855H200.031L225.792 335.881H265.982Z" fill="white"/>
<path d="M307.167 327.971C307.343 327.971 307.511 327.902 307.637 327.779C307.763 327.656 307.835 327.489 307.839 327.313V125.879C307.835 125.703 307.763 125.535 307.637 125.412C307.511 125.289 307.343 125.221 307.167 125.221C307.08 125.221 306.995 125.238 306.915 125.271C306.835 125.304 306.763 125.352 306.701 125.413C306.64 125.474 306.592 125.547 306.559 125.627C306.526 125.707 306.509 125.792 306.509 125.879V327.313C306.509 327.399 306.526 327.485 306.559 327.565C306.592 327.645 306.64 327.717 306.701 327.778C306.763 327.839 306.835 327.888 306.915 327.921C306.995 327.954 307.08 327.971 307.167 327.971Z" fill="#F0F0F0"/>
<path d="M217.166 335.881L191.405 119.855H175.733L201.493 335.881H217.166Z" fill="white"/>
<path d="M110.981 335.881L110.981 119.855H109.811L109.811 335.881H110.981Z" fill="#E6E6E6"/>
<path opacity="0.6" d="M98.3638 139.534H315.003L315.851 123.452H99.2117L98.3638 139.534Z" fill="#EBEBEB"/>
<path opacity="0.6" d="M98.3638 165.923H315.003L315.851 149.827H99.2117L98.3638 165.923Z" fill="#EBEBEB"/>
<path opacity="0.6" d="M98.3638 192.297H315.003L315.851 176.215H99.2117L98.3638 192.297Z" fill="#EBEBEB"/>
<path opacity="0.6" d="M98.3638 218.686H315.003L315.851 202.59H99.2117L98.3638 218.686Z" fill="#EBEBEB"/>
<path opacity="0.6" d="M98.3638 245.061H315.003L315.851 228.979H99.2117L98.3638 245.061Z" fill="#EBEBEB"/>
<path opacity="0.6" d="M98.3638 271.435H315.003L315.851 255.353H99.2117L98.3638 271.435Z" fill="#EBEBEB"/>
<path d="M438.22 250.937L611.365 250.937V130H438.22V250.937Z" fill="#F0F0F0"/>
<path d="M429.507 250.937L609.815 250.937V130L429.507 130V250.937Z" fill="#F5F5F5"/>
<path d="M600.282 241.405V139.518H439.038V241.405H600.282Z" fill="white"/>
<path d="M574.332 207.326V173.613C574.332 168.429 570.13 164.227 564.946 164.227H534.916C529.732 164.227 525.53 168.429 525.53 173.613V207.326C525.53 212.51 529.732 216.712 534.916 216.712H564.946C570.13 216.712 574.332 212.51 574.332 207.326Z" fill="#F5F5F5"/>
<path d="M513.79 207.326V173.613C513.79 168.429 509.588 164.227 504.404 164.227H474.375C469.191 164.227 464.989 168.429 464.989 173.613V207.326C464.989 212.51 469.191 216.712 474.375 216.712H504.404C509.588 216.712 513.79 212.51 513.79 207.326Z" fill="#F5F5F5"/>
<path d="M365.501 625.093C522.055 625.093 648.968 617.683 648.968 608.543C648.968 599.403 522.055 591.993 365.501 591.993C208.946 591.993 82.0334 599.403 82.0334 608.543C82.0334 617.683 208.946 625.093 365.501 625.093Z" fill="#F5F5F5"/>
<path d="M429.945 581.218L418.614 577.095L424.857 549.8L436.188 553.908L429.945 581.218Z" fill="#7F3E3B"/>
<path d="M519.303 596.262H507.285L503.864 568.411H515.896L519.303 596.262Z" fill="#7F3E3B"/>
<path d="M505.706 594.873H520.326C520.564 594.874 520.795 594.955 520.98 595.104C521.166 595.252 521.296 595.46 521.349 595.692L523.835 606.379C523.895 606.638 523.895 606.907 523.835 607.166C523.775 607.425 523.657 607.667 523.489 607.873C523.321 608.08 523.108 608.244 522.866 608.355C522.624 608.466 522.361 608.52 522.095 608.513C517.372 608.44 513.937 608.163 507.986 608.163C504.331 608.163 493.366 608.543 488.264 608.543C483.162 608.543 482.504 603.543 484.565 603.089C493.82 601.072 500.779 598.28 503.717 595.604C504.266 595.12 504.975 594.86 505.706 594.873Z" fill="#263238"/>
<path d="M418.205 574.8L431.071 577.549C431.306 577.599 431.516 577.728 431.668 577.914C431.82 578.1 431.903 578.332 431.904 578.572L432.094 589.523C432.101 589.787 432.048 590.049 431.938 590.289C431.827 590.529 431.664 590.74 431.459 590.907C431.254 591.073 431.014 591.191 430.756 591.25C430.499 591.309 430.232 591.308 429.975 591.248C425.34 590.181 418.688 588.47 412.855 587.213C406.027 585.751 401.802 584.377 393.849 582.651C389.009 581.613 388.673 576.452 390.778 576.438C400.413 576.438 406.246 578.295 415.223 575.107C416.169 574.73 417.202 574.624 418.205 574.8Z" fill="#263238"/>
<path d="M494.61 238.306C490.925 243.92 487.168 249.505 483.338 255.061L471.846 271.625C469.975 274.388 468.016 277.108 466.232 279.812C464.873 281.871 463.223 283.722 461.334 285.31C459.025 287.264 456.242 288.575 453.264 289.111C451.751 289.356 450.211 289.39 448.688 289.213C447.322 289.038 445.982 288.7 444.697 288.204C442.508 287.351 440.474 286.146 438.673 284.637C437.097 283.328 435.661 281.858 434.39 280.251C433.761 279.491 433.206 278.701 432.665 277.897C432.124 277.093 431.67 276.318 431.086 275.309L438.25 269.812L440.004 271.07L441.846 272.298C443.008 273.042 444.231 273.688 445.501 274.228C446.472 274.682 447.517 274.954 448.586 275.032C449.419 275.032 449.858 274.871 450.048 274.637C450.315 274.33 450.564 274.008 450.793 273.672C451.174 273.102 451.598 272.356 452.182 271.26C453.908 268.175 455.603 265.222 457.387 262.283C460.915 256.435 464.517 250.655 468.191 244.944C470.048 242.093 471.89 239.257 473.805 236.449C475.721 233.642 477.577 230.821 479.566 228.058L494.61 238.306Z" fill="#803E3C"/>
<path d="M500.706 230.996C502.65 242.356 476.524 269.374 476.524 269.374L455.398 251.83C460.815 242.882 467.188 234.548 474.404 226.976C485.092 216.216 498.542 218.584 500.706 230.996Z" fill="#031F68"/>
<path opacity="0.7" d="M500.706 230.996C502.65 242.356 476.524 269.374 476.524 269.374L455.398 251.83C460.815 242.882 467.188 234.548 474.404 226.976C485.092 216.216 498.542 218.584 500.706 230.996Z" fill="white"/>
<path opacity="0.2" d="M484.142 244.227C478.002 246.157 470.59 255.236 468.704 262.912L476.54 269.432C482.778 262.901 488.524 255.918 493.733 248.54C492.315 245.455 491.233 242.005 484.142 244.227Z" fill="black"/>
<path opacity="0.2" d="M424.858 549.8L421.641 563.879L432.972 567.987L436.188 553.923L424.858 549.8Z" fill="black"/>
<path opacity="0.2" d="M515.896 568.411H503.864L505.633 582.768H517.665L515.896 568.411Z" fill="black"/>
<path d="M554.464 232.926C549.4 245.357 545.28 258.151 542.139 271.201C539.888 280.31 538.148 289.052 536.759 297.006C533.499 315.646 532.183 330.003 531.043 334.784L467.943 322.006C467.49 252.926 488.308 220.134 488.308 220.134C493.457 219.852 498.618 219.886 503.762 220.236C504.844 220.309 505.955 220.411 507.066 220.543C516.105 221.833 525.063 223.644 533.894 225.967C535.575 226.391 537.256 226.873 538.908 227.356C547.212 229.871 554.464 232.926 554.464 232.926Z" fill="#031F68"/>
<path opacity="0.7" d="M554.464 232.926C549.4 245.357 545.28 258.151 542.139 271.201C539.888 280.31 538.148 289.052 536.759 297.006C533.499 315.646 532.183 330.003 531.043 334.784L467.943 322.006C467.49 252.926 488.308 220.134 488.308 220.134C493.457 219.852 498.618 219.886 503.762 220.236C504.844 220.309 505.955 220.411 507.066 220.543C516.105 221.833 525.063 223.644 533.894 225.967C535.575 226.391 537.256 226.873 538.908 227.356C547.212 229.871 554.464 232.926 554.464 232.926Z" fill="white"/>
<path d="M508.382 233.496C505.911 237.882 502.534 241.303 498.25 253.233C498.514 255.938 498.923 258.686 499.435 261.464C501.384 259.232 503.431 257.02 505.575 254.827C508.66 243.131 508.09 239.797 510.882 234.095L508.382 233.496Z" fill="#031F68"/>
<path d="M507.782 237.341L506.758 230.967L511.393 229.958L514.2 232.56L507.782 237.341Z" fill="#031F68"/>
<path d="M538.864 227.356C523.206 238.131 509.902 249.462 499.39 261.465C496.641 246.757 497.299 232.912 502.197 220.149C497.542 219.881 492.875 219.881 488.22 220.149C488.22 220.149 467.445 252.97 467.898 322.021L531.042 334.799C532.183 330.018 533.498 315.661 536.759 297.02C538.148 289.067 539.887 280.324 542.139 271.216C545.279 258.166 549.399 245.372 554.463 232.941C554.463 232.941 547.212 229.871 538.864 227.356Z" fill="#263238"/>
<path d="M536.993 195.221C533.645 203.511 528.908 218.979 533.85 225.923C530.648 228.16 527.001 229.68 523.159 230.379C519.316 231.078 515.368 230.939 511.583 229.973C504.186 228.306 504.814 223.028 507.022 220.499C517.095 220.148 518.221 212.955 517.826 205.879L536.993 195.221Z" fill="#7F3E3B"/>
<path d="M511.393 229.973C511.393 229.973 513.469 234.125 516.042 238.35C521.451 236.785 534.317 232.268 535.223 225.762C534.847 224.295 533.974 223.003 532.753 222.107C526.099 225.854 518.887 228.509 511.393 229.973Z" fill="white"/>
<path d="M511.394 229.972C508.532 231.502 505.899 233.426 503.572 235.689C500.575 232.501 505.034 220.996 506.686 219.957C508.284 219.233 510.069 219.029 511.789 219.373C511.789 219.373 506.087 227.399 511.394 229.972Z" fill="white"/>
<path opacity="0.2" d="M529.245 199.593L517.9 205.938C518.01 207.58 517.981 209.228 517.812 210.865C521.584 211.085 527.417 208.073 528.543 204.301C529.058 202.787 529.296 201.192 529.245 199.593Z" fill="black"/>
<path d="M515.107 165.207C511.832 168.789 508.543 177.751 515.707 177.678C522.87 177.605 520.736 159.037 515.107 165.207Z" fill="#263238"/>
<path d="M542.694 184.957C538.308 196.054 536.305 202.765 528.703 206.654C517.27 212.502 505.019 202.618 506.013 190.411C506.905 179.417 513.922 163.13 526.481 162.355C529.253 162.191 532.022 162.731 534.529 163.926C537.036 165.12 539.2 166.93 540.818 169.187C542.437 171.443 543.458 174.073 543.786 176.831C544.114 179.588 543.739 182.384 542.694 184.957Z" fill="#7F3E3B"/>
<path d="M518.133 169.592C510.691 165.879 508.367 155.499 520.691 152.823C523.55 152.328 526.473 152.328 529.332 152.823C529.332 152.823 526.115 154.812 527.227 157.794C529.083 155.996 531.469 154.845 534.032 154.51C536.594 154.176 539.196 154.676 541.452 155.937C539.142 157.75 538.63 163.408 542.914 163.525C549.376 163.7 556.89 168.393 553.148 174.899C558.601 181.727 550.092 191.215 538.031 192.18C534.741 185.557 540.048 175.762 540.048 175.762C533.966 175.601 524.858 172.926 518.133 169.592Z" fill="#263238"/>
<path d="M551.321 175.09C551.321 175.09 556.833 174.33 554.961 169.14C559.069 172.59 556.058 175.777 551.321 175.09Z" fill="#263238"/>
<path d="M550.18 175.952C550.18 175.952 555.531 174.388 555.94 179.885C558.28 175.045 554.245 173.379 550.18 175.952Z" fill="#263238"/>
<path d="M543.981 195.821C543.121 197.017 542.032 198.032 540.778 198.805C539.523 199.578 538.127 200.094 536.671 200.324C532.739 200.894 531.247 197.239 532.739 193.789C534.069 190.674 537.709 186.625 541.511 187.633C545.312 188.642 546.101 192.824 543.981 195.821Z" fill="#7F3E3B"/>
<path d="M418.307 559.728L437.503 566.687C437.503 566.687 452.489 500.692 460.457 464.113C462.884 452.972 467.767 437.68 473.527 421.364C480.837 400.896 489.492 378.732 496.51 361.422C503.907 343.22 509.419 330.369 509.419 330.369L467.942 321.977C467.942 321.977 436.29 413.06 429.17 449.054C421.772 486.511 418.307 559.728 418.307 559.728Z" fill="#031F68"/>
<g opacity="0.3">
<path d="M418.307 559.728L437.503 566.687C437.503 566.687 452.489 500.692 460.457 464.113C462.884 452.973 467.767 437.68 473.527 421.364C480.837 400.896 489.492 378.732 496.51 361.422C503.907 343.22 509.419 330.369 509.419 330.369L467.942 321.978C467.942 321.978 436.29 413.06 429.17 449.055C421.772 486.511 418.307 559.728 418.307 559.728Z" fill="black"/>
</g>
<path opacity="0.2" d="M473.528 421.363C480.838 400.895 489.493 378.731 496.51 361.421L493.294 351.494C481.437 362.576 474.025 400.354 473.528 421.363Z" fill="black"/>
<path d="M490.312 326.539C490.312 326.539 482.914 430.341 482.461 465.677C481.978 504.318 500.005 579.991 500.005 579.991H522.022C522.022 579.991 513.25 511.701 516.174 473.426C519.449 430.618 530.999 334.784 530.999 334.784L490.312 326.539Z" fill="#031F68"/>
<g opacity="0.3">
<path d="M490.312 326.539C490.312 326.539 482.914 430.341 482.461 465.678C481.978 504.318 500.005 579.991 500.005 579.991H522.023C522.023 579.991 513.251 511.701 516.175 473.426C519.45 430.619 530.999 334.785 530.999 334.785L490.312 326.539Z" fill="black"/>
</g>
<path d="M497.417 580.473H523.353L523.28 572.724L496.189 571.16L497.417 580.473Z" fill="#263238"/>
<path d="M415.749 559.479L438.731 567.447L441.231 560.034L416.1 550.882L415.749 559.479Z" fill="#263238"/>
<path d="M524.522 182.356C524.23 183.277 523.499 183.818 522.899 183.657C522.3 183.496 522.051 182.546 522.359 181.61C522.666 180.674 523.382 180.148 523.981 180.309C524.581 180.47 524.858 181.435 524.522 182.356Z" fill="#263238"/>
<path d="M514.177 178.853C514.471 177.929 514.216 177.024 513.608 176.831C513 176.638 512.27 177.229 511.976 178.153C511.682 179.076 511.937 179.981 512.545 180.175C513.153 180.368 513.884 179.776 514.177 178.853Z" fill="#263238"/>
<path d="M517.285 180.426C515.26 182.766 512.923 184.817 510.341 186.522C510.835 187.159 511.457 187.684 512.167 188.065C512.878 188.445 513.66 188.672 514.463 188.73L517.285 180.426Z" fill="#630F0F"/>
<path d="M518.396 196.625C517.986 196.541 517.58 196.434 517.182 196.303C517.111 196.277 517.052 196.225 517.017 196.157C516.982 196.09 516.973 196.011 516.992 195.938C517.019 195.867 517.072 195.809 517.14 195.776C517.208 195.744 517.286 195.739 517.358 195.762C518.489 196.176 519.703 196.314 520.898 196.164C522.093 196.014 523.236 195.581 524.229 194.9C524.255 194.874 524.286 194.853 524.32 194.839C524.354 194.825 524.39 194.817 524.427 194.817C524.463 194.817 524.5 194.825 524.534 194.839C524.568 194.853 524.598 194.874 524.624 194.9C524.652 194.924 524.675 194.955 524.69 194.989C524.705 195.023 524.713 195.06 524.713 195.097C524.713 195.134 524.705 195.171 524.69 195.205C524.675 195.239 524.652 195.27 524.624 195.294C523.735 195.936 522.722 196.385 521.65 196.614C520.578 196.843 519.47 196.847 518.396 196.625Z" fill="#263238"/>
<path d="M528.834 180.06C528.735 180.044 528.642 180.002 528.565 179.938C528.487 179.873 528.429 179.789 528.396 179.694C528.173 179.011 527.792 178.39 527.284 177.882C526.776 177.374 526.155 176.993 525.472 176.77C525.323 176.732 525.196 176.637 525.116 176.506C525.037 176.375 525.012 176.218 525.048 176.068C525.089 175.923 525.186 175.8 525.317 175.726C525.449 175.652 525.604 175.633 525.75 175.674C526.613 175.956 527.396 176.44 528.034 177.086C528.673 177.732 529.147 178.521 529.419 179.387C529.444 179.458 529.454 179.533 529.449 179.608C529.444 179.683 529.424 179.757 529.39 179.824C529.356 179.891 529.308 179.95 529.251 179.998C529.193 180.046 529.126 180.082 529.054 180.104C528.978 180.108 528.903 180.092 528.834 180.06Z" fill="#263238"/>
<path d="M510.824 173.759C510.711 173.739 510.609 173.682 510.531 173.598C510.477 173.546 510.434 173.484 510.404 173.415C510.374 173.346 510.359 173.271 510.359 173.196C510.359 173.121 510.374 173.047 510.404 172.978C510.434 172.908 510.477 172.846 510.531 172.794C511.14 172.13 511.902 171.625 512.75 171.322C513.599 171.019 514.508 170.927 515.4 171.054C515.548 171.086 515.677 171.174 515.762 171.299C515.846 171.425 515.879 171.578 515.853 171.727C515.825 171.874 515.74 172.003 515.617 172.088C515.494 172.173 515.342 172.206 515.195 172.18C514.483 172.091 513.761 172.178 513.091 172.432C512.42 172.687 511.823 173.103 511.35 173.642C511.277 173.7 511.192 173.741 511.1 173.761C511.009 173.782 510.915 173.781 510.824 173.759Z" fill="#263238"/>
<path d="M501.744 596.964C500.922 597.031 500.101 596.814 499.419 596.35C499.212 596.17 499.05 595.944 498.946 595.69C498.841 595.436 498.798 595.161 498.82 594.888C498.821 594.723 498.866 594.561 498.951 594.42C499.036 594.278 499.157 594.162 499.302 594.084C500.618 593.397 504.522 595.794 504.96 596.057C505.01 596.087 505.05 596.131 505.075 596.183C505.101 596.234 505.112 596.292 505.106 596.35C505.097 596.406 505.071 596.458 505.032 596.499C504.993 596.541 504.942 596.57 504.887 596.584C503.857 596.829 502.803 596.957 501.744 596.964ZM499.931 594.478C499.805 594.475 499.68 594.5 499.565 594.552C499.508 594.586 499.462 594.636 499.431 594.695C499.4 594.754 499.386 594.821 499.39 594.888C499.365 595.08 499.387 595.275 499.456 595.457C499.525 595.638 499.638 595.799 499.785 595.926C500.443 596.467 502.022 596.54 504.054 596.131C502.82 595.33 501.446 594.77 500.004 594.478H499.931Z" fill="#031F68"/>
<path d="M504.814 596.496C504.771 596.509 504.725 596.509 504.682 596.496C503.439 595.823 500.998 593.177 501.246 591.847C501.284 591.638 501.394 591.449 501.557 591.312C501.72 591.176 501.926 591.101 502.138 591.101C502.355 591.067 502.577 591.082 502.787 591.146C502.997 591.209 503.19 591.319 503.352 591.467C504.814 592.607 505.091 596.072 505.106 596.218C505.11 596.258 505.106 596.299 505.093 596.337C505.08 596.375 505.059 596.41 505.031 596.439C505.003 596.469 504.969 596.492 504.932 596.506C504.894 596.521 504.854 596.528 504.814 596.525V596.496ZM502.343 591.628H502.211C501.846 591.628 501.817 591.847 501.802 591.92C501.656 592.709 503.264 594.698 504.463 595.648C504.36 594.274 503.851 592.961 503.001 591.876C502.813 591.73 502.58 591.658 502.343 591.671V591.628Z" fill="#031F68"/>
<path d="M416.67 576.175C414.696 576.175 411.217 575.882 410.164 574.464C410.007 574.259 409.903 574.019 409.859 573.764C409.816 573.509 409.835 573.248 409.915 573.002C409.952 572.852 410.028 572.714 410.136 572.604C410.244 572.493 410.38 572.414 410.529 572.374C412.138 571.862 416.377 575.298 416.845 575.678C416.893 575.715 416.927 575.766 416.943 575.824C416.959 575.882 416.955 575.944 416.933 575.999C416.914 576.053 416.878 576.099 416.831 576.131C416.783 576.163 416.727 576.178 416.67 576.175ZM410.822 572.871H410.719C410.657 572.883 410.601 572.916 410.558 572.963C410.516 573.011 410.491 573.071 410.486 573.134C410.428 573.294 410.411 573.466 410.436 573.635C410.462 573.803 410.529 573.963 410.632 574.099C411.231 574.888 413.146 575.415 415.836 575.561C414.126 574.289 411.757 572.754 410.822 572.871Z" fill="#031F68"/>
<path d="M416.671 576.175C416.604 576.196 416.533 576.196 416.466 576.175C415.165 575.239 412.87 572.081 413.367 570.809C413.469 570.502 413.776 570.166 414.566 570.253C414.851 570.282 415.128 570.367 415.379 570.506C415.63 570.644 415.851 570.832 416.028 571.058C417.27 572.607 416.934 575.838 416.919 575.984C416.914 576.032 416.896 576.077 416.868 576.115C416.839 576.154 416.802 576.184 416.759 576.204L416.671 576.175ZM414.2 570.751C413.951 570.751 413.908 570.911 413.893 570.955C413.601 571.715 415.106 574.128 416.378 575.341C416.527 573.967 416.241 572.581 415.56 571.379C415.433 571.214 415.274 571.076 415.094 570.973C414.913 570.871 414.714 570.805 414.507 570.78L414.2 570.751Z" fill="#031F68"/>
<path d="M438.731 269.797L429.828 261.347L425.632 274.285C425.632 274.285 434.023 281.332 437.474 276.873L438.731 269.797Z" fill="#7F3E3B"/>
<path d="M417.972 258.789L418.147 271.142L425.647 274.286L429.843 261.347L417.972 258.789Z" fill="#7F3E3B"/>
<path d="M459.069 240.602L367.767 221.596L359.653 260.383L450.955 279.389C456.651 280.575 461.642 283.976 464.831 288.842C468.02 293.709 469.144 299.643 467.958 305.339C466.771 311.035 463.371 316.026 458.504 319.215C453.637 322.404 447.703 323.529 442.007 322.342L350.705 303.336L342.606 342.108L433.908 361.114C449.888 364.395 466.517 361.217 480.162 352.276C493.807 343.334 503.359 329.356 506.73 313.395L509.844 298.395L459.069 240.602Z" fill="#031F68"/>
<path opacity="0.1" d="M459.069 240.602L367.767 221.596L359.653 260.383L450.955 279.389C456.651 280.575 461.642 283.976 464.831 288.842C468.02 293.709 469.144 299.643 467.958 305.339C466.771 311.035 463.371 316.026 458.504 319.215C453.637 322.404 447.703 323.529 442.007 322.342L350.705 303.336L342.606 342.108L433.908 361.114C449.888 364.395 466.517 361.217 480.162 352.276C493.807 343.334 503.359 329.356 506.73 313.395L509.844 298.395L459.069 240.602Z" fill="black"/>
<path d="M509.479 300.192C506.117 316.162 496.57 330.151 482.924 339.101C469.278 348.051 452.643 351.235 436.656 347.956L345.354 328.95L353.439 290.148L444.741 309.154C447.571 309.769 450.495 309.818 453.344 309.296C456.193 308.775 458.911 307.695 461.34 306.118C463.769 304.541 465.862 302.498 467.498 300.107C469.133 297.717 470.279 295.026 470.869 292.191C471.459 289.355 471.481 286.431 470.934 283.587C470.388 280.743 469.284 278.035 467.685 275.62C466.086 273.204 464.025 271.13 461.62 269.516C459.215 267.902 456.515 266.78 453.674 266.215L362.372 247.209L370.442 208.408L461.759 227.414C477.714 230.796 491.685 240.349 500.625 253.991C509.564 267.633 512.747 284.257 509.479 300.236V300.192Z" fill="#031F68"/>
<path opacity="0.5" d="M405.196 215.602L370.444 208.367L359.616 260.381L394.368 267.615L405.196 215.602Z" fill="white"/>
<path opacity="0.5" d="M388.173 297.362L353.421 290.127L342.593 342.141L377.345 349.376L388.173 297.362Z" fill="white"/>
<path d="M560.122 243.496C561.35 247.882 562.285 251.946 563.236 256.201C564.186 260.455 564.917 264.724 565.604 269.052C566.291 273.379 566.788 277.824 567.066 282.312C567.432 287.118 567.295 291.95 566.657 296.728C566.444 298.145 566.136 299.547 565.736 300.923C565.498 301.712 565.22 302.488 564.902 303.248C564.74 303.679 564.55 304.099 564.332 304.505L563.996 305.163L563.528 305.938C562.327 307.811 560.73 309.398 558.85 310.587C557.358 311.521 555.744 312.244 554.054 312.736C551.385 313.492 548.627 313.885 545.853 313.906C543.449 313.933 541.046 313.801 538.66 313.511C529.822 312.325 521.179 309.976 512.958 306.523L515.399 297.824L521.452 298.497C523.499 298.716 525.531 298.862 527.548 299.023C531.477 299.341 535.42 299.458 539.361 299.374C541.172 299.328 542.979 299.172 544.771 298.906C546.209 298.74 547.617 298.371 548.952 297.809C549.272 297.668 549.564 297.47 549.815 297.225C549.888 297.108 549.712 297.225 549.508 297.4C549.502 297.429 549.502 297.459 549.508 297.488V297.298C549.508 297.137 549.595 296.903 549.654 296.64C549.777 295.977 549.865 295.309 549.917 294.637C550.091 291.035 549.949 287.425 549.493 283.847C549.025 280.002 548.44 276.055 547.695 272.151C546.233 264.256 544.434 256.069 542.534 248.379L560.122 243.496Z" fill="#803E3C"/>
<path d="M557.709 234.681C567.139 241.304 570.253 275.617 570.253 275.617L541.013 279.17C538.818 269.267 537.516 259.188 537.124 249.052C536.729 232.766 546.276 226.611 557.709 234.681Z" fill="#031F68"/>
<path opacity="0.7" d="M557.709 234.681C567.139 241.304 570.253 275.617 570.253 275.617L541.013 279.17C538.818 269.267 537.516 259.188 537.124 249.052C536.729 232.766 546.276 226.611 557.709 234.681Z" fill="white"/>
<path d="M518.367 298.248L509.785 289.476L504.39 304.096C504.39 304.096 513.323 309.827 516.875 305.383L518.367 298.248Z" fill="#7F3E3B"/>
<path d="M499.873 288.263L496.013 300.441L504.449 304.023L509.785 289.535L499.873 288.263Z" fill="#7F3E3B"/>
<path d="M332.896 150.762V206.947C332.892 208.602 332.233 210.187 331.064 211.357C329.894 212.527 328.308 213.186 326.653 213.19H230.571C228.916 213.186 227.331 212.527 226.161 211.357C224.991 210.187 224.332 208.602 224.328 206.947V150.762C224.327 149.966 224.481 149.176 224.781 148.438C225.252 147.275 226.061 146.28 227.104 145.581C228.146 144.883 229.374 144.513 230.629 144.52H326.712C327.967 144.511 329.196 144.88 330.239 145.578C331.282 146.277 332.091 147.273 332.56 148.438C332.82 149.184 332.934 149.973 332.896 150.762Z" fill="#031F68"/>
<path opacity="0.3" d="M332.444 148.438L281.172 190.997C280.451 191.591 279.547 191.916 278.613 191.916C277.679 191.916 276.775 191.591 276.055 190.997L224.782 148.438C225.253 147.275 226.062 146.279 227.105 145.581C228.147 144.882 229.375 144.513 230.63 144.52H326.713C327.948 144.534 329.152 144.914 330.172 145.611C331.191 146.308 331.982 147.292 332.444 148.438Z" fill="black"/>
<path d="M295.323 114.549H244.241V164.578L276.054 190.997C276.774 191.591 277.679 191.916 278.612 191.916C279.546 191.916 280.451 191.591 281.171 190.997L312.999 164.578V125.733L295.323 114.549Z" fill="white"/>
<path d="M278.613 192.809C277.469 192.81 276.36 192.406 275.485 191.669L243.671 165.206C243.571 165.122 243.491 165.017 243.435 164.898C243.38 164.78 243.351 164.65 243.35 164.519V114.548C243.35 114.312 243.444 114.085 243.611 113.918C243.778 113.75 244.005 113.656 244.242 113.656H295.324C295.489 113.654 295.652 113.7 295.792 113.788L313.54 124.943C313.668 125.024 313.773 125.136 313.845 125.269C313.917 125.402 313.953 125.552 313.95 125.703V164.578C313.949 164.709 313.92 164.838 313.864 164.957C313.809 165.075 313.728 165.18 313.628 165.265L281.742 191.669C280.866 192.406 279.758 192.81 278.613 192.809ZM245.119 164.154L276.625 190.309C277.184 190.773 277.887 191.026 278.613 191.026C279.339 191.026 280.043 190.773 280.602 190.309L312.108 164.154V126.142L294.988 115.498H245.119V164.154Z" fill="#031F68"/>
<path d="M312.999 125.702L295.251 114.533L300.996 129.328L312.999 125.702Z" fill="#EBEBEB"/>
<path d="M300.996 130.22C300.816 130.219 300.641 130.164 300.492 130.062C300.344 129.96 300.229 129.817 300.162 129.65L294.417 114.855C294.353 114.681 294.346 114.492 294.394 114.314C294.443 114.136 294.546 113.977 294.689 113.86C294.832 113.743 295.008 113.673 295.192 113.66C295.376 113.647 295.56 113.691 295.718 113.787L313.466 124.942C313.611 125.035 313.726 125.167 313.798 125.322C313.871 125.477 313.897 125.65 313.876 125.82C313.854 125.99 313.783 126.149 313.671 126.279C313.559 126.409 313.412 126.504 313.247 126.551L301.244 130.118C301.169 130.168 301.084 130.203 300.996 130.22ZM297.048 116.726L301.522 128.232L310.864 125.41L297.048 116.726Z" fill="#031F68"/>
<path d="M292.531 161.918H296.566C295.097 164.495 292.914 166.592 290.279 167.956C286.821 169.701 282.983 170.56 279.11 170.456C275.447 170.562 271.808 169.838 268.466 168.336C265.685 167.078 263.448 164.863 262.165 162.093C260.915 159.276 260.411 156.184 260.703 153.116C260.973 149.584 262.103 146.171 263.993 143.175C265.785 140.229 268.362 137.84 271.434 136.274C274.614 134.703 278.122 133.911 281.668 133.964C284.56 133.902 287.424 134.539 290.016 135.821C292.304 136.965 294.157 138.823 295.294 141.113C296.462 143.426 296.968 146.017 296.756 148.599C296.512 151.84 295.231 154.916 293.101 157.371C291.93 158.904 290.421 160.148 288.692 161.005C286.963 161.862 285.06 162.309 283.13 162.312C282.317 162.37 281.505 162.176 280.806 161.757C280.551 161.564 280.337 161.323 280.177 161.046C280.016 160.77 279.912 160.465 279.87 160.149C278.43 161.521 276.523 162.294 274.534 162.312C273.582 162.347 272.634 162.17 271.759 161.793C270.884 161.416 270.104 160.85 269.475 160.134C268.811 159.326 268.324 158.389 268.045 157.382C267.765 156.375 267.7 155.32 267.852 154.286C268.071 151.323 269.159 148.49 270.981 146.143C271.871 144.793 273.076 143.68 274.492 142.901C275.909 142.121 277.493 141.699 279.11 141.669C280.071 141.594 281.034 141.797 281.884 142.253C282.734 142.709 283.436 143.399 283.905 144.242L284.534 142.137H289.548L285.63 155.748C285.453 156.292 285.321 156.849 285.236 157.415C285.193 157.665 285.25 157.923 285.396 158.131C285.46 158.205 285.538 158.264 285.627 158.304C285.715 158.344 285.811 158.365 285.908 158.365C286.806 158.242 287.649 157.861 288.335 157.268C289.755 156.25 290.929 154.926 291.771 153.394C292.665 151.856 293.204 150.138 293.35 148.365C293.508 146.939 293.342 145.496 292.863 144.144C292.385 142.792 291.606 141.566 290.586 140.558C288.393 138.472 285.275 137.429 281.23 137.429C278.141 137.35 275.084 138.07 272.355 139.52C269.895 140.881 267.868 142.907 266.507 145.368C265.131 147.801 264.303 150.505 264.08 153.292C263.837 155.819 264.345 158.362 265.542 160.602C266.691 162.77 268.564 164.467 270.835 165.397C273.457 166.436 276.261 166.933 279.081 166.859C281.766 166.913 284.439 166.487 286.975 165.602C289.106 164.857 291.016 163.59 292.531 161.918ZM272.618 154.125C272.412 155.351 272.662 156.609 273.32 157.663C273.591 158.026 273.944 158.319 274.351 158.517C274.758 158.716 275.207 158.814 275.659 158.803C276.379 158.8 277.087 158.619 277.721 158.277C278.269 157.958 278.762 157.553 279.183 157.078C280.045 156.082 280.718 154.938 281.171 153.701C281.743 152.388 282.099 150.991 282.224 149.564C282.406 148.414 282.145 147.238 281.493 146.274C281.21 145.902 280.842 145.602 280.42 145.401C279.998 145.2 279.533 145.104 279.066 145.119C277.906 145.144 276.797 145.597 275.952 146.391C274.863 147.364 274.047 148.603 273.583 149.988C273.068 151.314 272.743 152.707 272.618 154.125Z" fill="#031F68"/>
<path d="M260.922 286.727V337.035C260.922 338.517 260.334 339.939 259.287 340.989C258.24 342.039 256.82 342.63 255.337 342.634H169.313C167.829 342.63 166.407 342.039 165.358 340.99C164.309 339.941 163.717 338.519 163.714 337.035V286.727C163.714 286.015 163.853 285.31 164.123 284.651C164.54 283.616 165.257 282.728 166.181 282.103C167.106 281.478 168.197 281.143 169.313 281.143H255.337C256.45 281.143 257.537 281.476 258.459 282.099C259.381 282.721 260.096 283.605 260.513 284.637C260.788 285.299 260.927 286.01 260.922 286.727Z" fill="#031F68"/>
<path opacity="0.3" d="M260.513 284.637L214.606 322.751C213.962 323.282 213.153 323.573 212.318 323.573C211.483 323.573 210.674 323.282 210.03 322.751L164.123 284.651C164.54 283.616 165.257 282.728 166.182 282.103C167.107 281.478 168.197 281.143 169.313 281.143H255.337C256.45 281.143 257.537 281.476 258.459 282.099C259.381 282.721 260.096 283.605 260.513 284.637Z" fill="black"/>
<path d="M227.224 254.301H181.536V299.096L210.031 322.752C210.671 323.291 211.481 323.587 212.319 323.587C213.156 323.587 213.966 323.291 214.607 322.752L243.101 299.096V264.286L227.224 254.301Z" fill="white"/>
<path d="M212.326 324.375C211.301 324.377 210.308 324.02 209.519 323.366L181.024 299.711C180.936 299.635 180.866 299.54 180.818 299.434C180.77 299.328 180.746 299.213 180.747 299.097V254.301C180.747 254.09 180.829 253.888 180.977 253.738C181.125 253.587 181.325 253.501 181.536 253.497H227.224C227.375 253.498 227.522 253.544 227.648 253.629L243.525 263.614C243.641 263.684 243.736 263.783 243.803 263.901C243.869 264.018 243.905 264.151 243.905 264.287V299.097C243.903 299.214 243.876 299.33 243.826 299.436C243.775 299.542 243.703 299.635 243.613 299.711L215.118 323.366C214.333 324.017 213.346 324.373 212.326 324.375ZM182.34 298.731L210.542 322.123C211.042 322.542 211.674 322.772 212.326 322.772C212.978 322.772 213.609 322.542 214.109 322.123L242.311 298.731V264.725L226.99 255.091H182.34V298.731Z" fill="#031F68"/>
<path d="M243.101 264.286L227.224 254.301L232.355 267.532L243.101 264.286Z" fill="#EBEBEB"/>
<path d="M232.355 268.335C232.196 268.334 232.041 268.284 231.911 268.193C231.78 268.102 231.68 267.973 231.624 267.824L226.478 254.578C226.416 254.424 226.406 254.254 226.448 254.094C226.49 253.933 226.583 253.79 226.712 253.686C226.848 253.587 227.012 253.533 227.18 253.533C227.348 253.533 227.512 253.587 227.648 253.686L243.525 263.672C243.655 263.754 243.759 263.873 243.824 264.013C243.889 264.153 243.912 264.308 243.891 264.461C243.869 264.61 243.805 264.75 243.707 264.864C243.608 264.978 243.479 265.061 243.335 265.104L232.589 268.35C232.511 268.361 232.432 268.356 232.355 268.335ZM228.832 256.245L232.838 266.566L241.23 264.037L228.832 256.245Z" fill="#031F68"/>
<path d="M224.782 296.787H228.394C227.083 299.099 225.127 300.978 222.765 302.196C219.668 303.758 216.232 304.527 212.765 304.433C209.486 304.525 206.229 303.88 203.233 302.547C200.746 301.415 198.749 299.428 197.604 296.947C196.457 294.432 195.983 291.661 196.23 288.906C196.46 285.748 197.464 282.695 199.154 280.017C200.752 277.372 203.062 275.229 205.82 273.833C208.651 272.421 211.78 271.709 214.943 271.757C217.536 271.701 220.104 272.273 222.429 273.424C224.477 274.446 226.135 276.109 227.151 278.161C228.17 280.237 228.599 282.553 228.394 284.857C228.173 287.753 227.024 290.501 225.119 292.693C224.069 294.06 222.719 295.167 221.172 295.928C219.625 296.689 217.924 297.083 216.201 297.079C215.471 297.134 214.742 296.965 214.11 296.597C213.88 296.421 213.687 296.202 213.544 295.951C213.401 295.699 213.31 295.422 213.277 295.135C211.986 296.361 210.276 297.051 208.496 297.064C207.643 297.097 206.794 296.939 206.01 296.603C205.227 296.267 204.527 295.76 203.964 295.12C203.377 294.404 202.944 293.575 202.693 292.685C202.441 291.794 202.376 290.861 202.502 289.944C202.71 287.288 203.685 284.748 205.309 282.634C206.109 281.422 207.193 280.423 208.467 279.725C209.741 279.027 211.166 278.65 212.619 278.629C213.482 278.558 214.346 278.739 215.109 279.148C215.872 279.558 216.5 280.18 216.917 280.939L217.487 279.053H221.961L218.452 291.231C218.247 292.011 218.13 292.498 218.101 292.693C218.069 292.918 218.121 293.147 218.247 293.336C218.304 293.401 218.374 293.453 218.452 293.488C218.53 293.523 218.615 293.541 218.701 293.541C219.507 293.434 220.264 293.094 220.879 292.561C222.15 291.648 223.204 290.465 223.964 289.097C224.774 287.72 225.273 286.183 225.426 284.594C225.565 283.317 225.413 282.025 224.983 280.815C224.553 279.605 223.854 278.508 222.94 277.605C221.829 276.605 220.527 275.84 219.112 275.355C217.698 274.87 216.201 274.676 214.709 274.784C211.939 274.711 209.199 275.361 206.756 276.67C204.544 277.894 202.729 279.726 201.522 281.947C200.295 284.126 199.556 286.545 199.358 289.038C199.142 291.297 199.595 293.569 200.659 295.573C201.694 297.513 203.375 299.028 205.411 299.857C207.732 300.795 210.218 301.252 212.721 301.202C215.128 301.258 217.526 300.876 219.797 300.076C221.71 299.418 223.425 298.286 224.782 296.787ZM206.946 289.813C206.764 290.913 206.993 292.043 207.589 292.985C207.828 293.31 208.141 293.572 208.503 293.75C208.864 293.928 209.263 294.017 209.665 294.009C210.315 294.008 210.954 293.842 211.522 293.526C212.036 293.255 212.497 292.894 212.882 292.459C213.663 291.572 214.268 290.545 214.665 289.433C215.171 288.256 215.491 287.008 215.616 285.734C215.76 284.71 215.52 283.668 214.943 282.81C214.691 282.479 214.362 282.213 213.986 282.035C213.609 281.857 213.196 281.771 212.779 281.787C211.743 281.81 210.75 282.21 209.987 282.912C209.019 283.787 208.289 284.894 207.867 286.129C207.4 287.286 207.091 288.5 206.946 289.74V289.813Z" fill="#031F68"/>
<path d="M185.118 186.216V229.769C185.114 231.051 184.603 232.28 183.696 233.186C182.789 234.093 181.561 234.604 180.279 234.608H105.804C104.519 234.608 103.287 234.099 102.377 233.191C101.467 232.284 100.954 231.053 100.95 229.769V186.216C100.952 185.598 101.076 184.987 101.316 184.417C101.675 183.52 102.294 182.751 103.094 182.209C103.894 181.667 104.838 181.377 105.804 181.376H180.279C181.242 181.38 182.183 181.67 182.982 182.208C183.781 182.747 184.402 183.511 184.767 184.403C185.002 184.978 185.122 185.594 185.118 186.216Z" fill="#031F68"/>
<path opacity="0.3" d="M184.767 184.403L145.015 217.4C144.457 217.86 143.757 218.112 143.034 218.112C142.311 218.112 141.611 217.86 141.053 217.4L101.316 184.417C101.675 183.52 102.294 182.751 103.094 182.209C103.894 181.667 104.838 181.377 105.804 181.376H180.279C181.242 181.38 182.183 181.67 182.982 182.208C183.781 182.747 184.402 183.511 184.767 184.403Z" fill="black"/>
<path d="M155.937 158.13H116.463V196.932L141.127 217.4C141.681 217.868 142.383 218.124 143.108 218.124C143.833 218.124 144.535 217.868 145.089 217.4L169.767 196.932V166.785L155.937 158.13Z" fill="white"/>
<path d="M143.041 218.804C142.155 218.804 141.296 218.494 140.614 217.926L115.95 197.458C115.872 197.395 115.809 197.315 115.766 197.223C115.723 197.132 115.701 197.033 115.702 196.932V158.131C115.702 157.948 115.774 157.773 115.903 157.645C116.032 157.516 116.207 157.443 116.389 157.443H155.936C156.067 157.446 156.194 157.487 156.302 157.56L170.059 166.201C170.155 166.266 170.235 166.353 170.291 166.454C170.346 166.556 170.377 166.67 170.381 166.786V196.932C170.378 197.032 170.355 197.131 170.312 197.222C170.269 197.312 170.208 197.393 170.132 197.458L145.468 217.926C144.787 218.494 143.928 218.804 143.041 218.804ZM117.076 196.596L141.492 216.874C141.925 217.234 142.471 217.431 143.034 217.431C143.597 217.431 144.143 217.234 144.576 216.874L168.992 196.596V167.166L155.731 158.832H117.076V196.596Z" fill="#031F68"/>
<path d="M169.694 166.785L155.937 158.13L160.381 169.592L169.694 166.785Z" fill="#EBEBEB"/>
<path d="M160.38 170.294C160.242 170.292 160.107 170.248 159.994 170.167C159.882 170.086 159.797 169.972 159.752 169.841L155.366 158.379C155.317 158.244 155.311 158.098 155.349 157.96C155.387 157.822 155.467 157.7 155.578 157.61C155.689 157.52 155.826 157.466 155.969 157.457C156.111 157.448 156.253 157.484 156.375 157.56L170.132 166.2C170.243 166.274 170.331 166.378 170.385 166.499C170.44 166.621 170.458 166.756 170.439 166.887C170.423 167.018 170.369 167.14 170.283 167.239C170.197 167.338 170.083 167.409 169.957 167.443L160.658 170.265L160.38 170.294ZM157.325 159.826L160.804 168.759L168.114 166.566L157.325 159.826Z" fill="#031F68"/>
<path d="M153.83 194.855H156.959C155.819 196.855 154.123 198.481 152.076 199.534C149.397 200.892 146.423 201.56 143.421 201.478C140.584 201.562 137.765 201.002 135.175 199.841C133.019 198.867 131.285 197.149 130.292 195.002C129.305 192.822 128.897 190.426 129.108 188.043C129.318 185.304 130.196 182.658 131.666 180.338C133.046 178.049 135.042 176.195 137.427 174.987C139.882 173.766 142.594 173.149 145.336 173.189C147.582 173.141 149.805 173.643 151.813 174.651C153.584 175.537 155.02 176.973 155.906 178.744C156.794 180.558 157.163 182.582 156.974 184.592C156.782 187.1 155.787 189.478 154.137 191.376C153.232 192.565 152.064 193.529 150.725 194.193C149.386 194.857 147.913 195.204 146.418 195.206C145.783 195.254 145.149 195.1 144.605 194.768C144.409 194.618 144.245 194.432 144.122 194.218C143.999 194.005 143.92 193.769 143.889 193.525C142.772 194.589 141.293 195.189 139.751 195.206C139.013 195.234 138.278 195.095 137.6 194.802C136.922 194.509 136.319 194.067 135.833 193.51C135.326 192.891 134.952 192.175 134.733 191.405C134.514 190.636 134.456 189.83 134.561 189.037C134.745 186.739 135.593 184.544 137.003 182.721C137.691 181.676 138.623 180.815 139.718 180.212C140.813 179.608 142.039 179.28 143.289 179.256C144.036 179.195 144.784 179.352 145.443 179.708C146.102 180.063 146.644 180.602 147.003 181.259L147.5 179.621H151.389L148.348 190.06C148.213 190.481 148.11 190.911 148.041 191.347C148.014 191.542 148.061 191.74 148.172 191.902C148.221 191.959 148.281 192.005 148.35 192.035C148.418 192.065 148.492 192.08 148.567 192.078C149.265 191.985 149.921 191.69 150.453 191.23C151.551 190.418 152.464 189.384 153.135 188.195C153.805 187.006 154.216 185.688 154.342 184.329C154.449 183.238 154.312 182.136 153.94 181.104C153.569 180.072 152.972 179.136 152.193 178.364C151.226 177.503 150.097 176.845 148.872 176.428C147.646 176.011 146.349 175.844 145.058 175.937C142.666 175.875 140.299 176.434 138.187 177.56C136.267 178.617 134.693 180.206 133.655 182.136C132.581 184.019 131.937 186.116 131.769 188.276C131.587 190.227 131.978 192.188 132.894 193.92C133.795 195.6 135.253 196.913 137.017 197.633C139.046 198.45 141.22 198.848 143.406 198.803C145.486 198.849 147.556 198.517 149.517 197.823C151.186 197.221 152.672 196.199 153.83 194.855ZM138.392 188.817C138.228 189.749 138.404 190.709 138.889 191.522C139.1 191.802 139.374 192.027 139.689 192.18C140.004 192.332 140.351 192.407 140.702 192.399C141.264 192.401 141.817 192.26 142.31 191.99C142.751 191.754 143.147 191.443 143.479 191.069C144.15 190.297 144.675 189.411 145.029 188.452C145.46 187.426 145.736 186.342 145.848 185.236C145.974 184.344 145.766 183.438 145.263 182.692C145.045 182.404 144.762 182.173 144.436 182.018C144.11 181.862 143.752 181.788 143.392 181.8C142.49 181.82 141.627 182.168 140.965 182.779C140.131 183.575 139.517 184.572 139.181 185.674C138.775 186.681 138.509 187.738 138.392 188.817Z" fill="#031F68"/>
<path d="M256.537 220.441H218.554V221.961H256.537V220.441Z" fill="#031F68"/>
<path d="M266.127 230.12H239.402V231.64H266.127V230.12Z" fill="#031F68"/>
<path d="M136.316 341.874H111.696V343.395H136.316V341.874Z" fill="#031F68"/>
<path d="M145.907 351.538H132.545V353.059H145.907V351.538Z" fill="#031F68"/>
<path d="M125.058 266.772H111.696V268.292H125.058V266.772Z" fill="#031F68"/>
<path d="M211.565 220.441H203.422V221.961H211.565V220.441Z" fill="#031F68"/>
</svg>
