<svg width="51" height="51" viewBox="0 0 51 51" fill="none" xmlns="http://www.w3.org/2000/svg">
<g id="Frame 5470">
<path id="Vector" d="M40.0263 4.92529L31.4104 13.5903L42.4882 24.7309L32.0259 35.562L40.6418 44.5365L42.5856 42.6599C53.6019 32.0242 52.3767 13.9583 40.0263 4.92529Z" fill="white"/>
<path id="Vector_2" d="M25.256 13.8998L36.3338 2.75916L35.9605 2.5753C21.2309 -4.67692 3.66657 4.07222 0.476941 20.2504C-0.0275637 22.8093 -0.1326 25.4319 0.165535 28.0231C2.0888 44.7398 19.4873 54.8715 34.8602 48.2251L36.9493 47.3219L25.8715 35.8719L36.3338 25.0404L25.256 13.8998Z" fill="white"/>
<path id="Vector_3" d="M45.873 25.3497C45.873 36.63 36.7803 45.7743 25.5638 45.7743C14.3473 45.7743 5.25439 36.63 5.25439 25.3497C5.25439 14.0697 14.3473 4.92529 25.5638 4.92529C36.7803 4.92529 45.873 14.0697 45.873 25.3497Z" fill="url(#paint0_linear_9_8316)"/>
</g>
<defs>
<linearGradient id="paint0_linear_9_8316" x1="-23.6709" y1="-38.3995" x2="31.9829" y2="8.94654" gradientUnits="userSpaceOnUse">
<stop stop-color="white"/>
<stop offset="1" stop-color="white" stop-opacity="0"/>
</linearGradient>
</defs>
</svg>
