<svg width="451" height="310" viewBox="0 0 451 310" fill="none" xmlns="http://www.w3.org/2000/svg">
<g clip-path="url(#clip0_106_13904)">
<path d="M212.667 292.787L219.584 290.27L215.773 273.604L208.855 276.113L212.667 292.787Z" fill="#7F3E3B"/>
<path d="M158.108 301.973H165.445L167.534 284.968H160.188L158.108 301.973Z" fill="#7F3E3B"/>
<path d="M166.41 301.125H157.483C157.338 301.125 157.197 301.175 157.084 301.266C156.97 301.356 156.891 301.483 156.858 301.625L155.341 308.15C155.304 308.308 155.304 308.472 155.341 308.631C155.377 308.789 155.449 308.936 155.552 309.062C155.655 309.188 155.785 309.289 155.932 309.357C156.08 309.424 156.241 309.457 156.403 309.453C159.286 309.408 161.384 309.239 165.017 309.239C167.249 309.239 173.944 309.471 177.059 309.471C180.174 309.471 180.576 306.418 179.317 306.141C173.667 304.91 169.418 303.205 167.624 301.571C167.289 301.276 166.856 301.117 166.41 301.125Z" fill="#263238"/>
<path d="M219.834 288.869L211.979 290.547C211.836 290.578 211.707 290.656 211.614 290.77C211.522 290.884 211.471 291.026 211.47 291.172L211.354 297.858C211.35 298.019 211.382 298.179 211.45 298.326C211.517 298.472 211.617 298.601 211.742 298.703C211.867 298.805 212.014 298.876 212.171 298.913C212.328 298.949 212.491 298.948 212.648 298.911C215.478 298.26 219.539 297.215 223.101 296.448C227.27 295.555 229.849 294.716 234.705 293.663C237.66 293.029 237.865 289.878 236.58 289.869C230.697 289.869 227.136 291.003 221.655 289.057C221.077 288.826 220.447 288.761 219.834 288.869Z" fill="#263238"/>
<path d="M173.185 83.4195C175.434 86.8472 177.728 90.2571 180.067 93.6491L187.083 103.763C188.226 105.45 189.422 107.11 190.511 108.762C191.341 110.018 192.348 111.149 193.501 112.118C194.911 113.311 196.611 114.112 198.429 114.439C199.353 114.588 200.293 114.609 201.222 114.501C202.057 114.394 202.875 114.188 203.659 113.885C204.996 113.364 206.238 112.628 207.337 111.707C208.3 110.908 209.176 110.01 209.952 109.029C210.336 108.565 210.676 108.083 211.006 107.592C211.336 107.101 211.613 106.628 211.97 106.012L207.596 102.656L206.525 103.424L205.4 104.173C204.69 104.628 203.944 105.022 203.168 105.352C202.576 105.629 201.938 105.795 201.285 105.843C200.776 105.843 200.508 105.744 200.392 105.602C200.229 105.414 200.077 105.218 199.937 105.012C199.705 104.664 199.446 104.209 199.089 103.54C198.036 101.656 197 99.853 195.911 98.0588C193.757 94.4882 191.558 90.9593 189.315 87.4721C188.181 85.7314 187.056 83.9997 185.887 82.2858C184.718 80.572 183.584 78.8492 182.37 77.1621L173.185 83.4195Z" fill="#803E3C"/>
<path d="M169.463 78.956C168.275 85.8918 184.227 102.388 184.227 102.388L197.125 91.6761C193.818 86.2126 189.927 81.1245 185.521 76.5012C178.996 69.9314 170.784 71.3775 169.463 78.956Z" fill="#031F68"/>
<path opacity="0.7" d="M169.463 78.956C168.275 85.8918 184.227 102.388 184.227 102.388L197.125 91.6761C193.818 86.2126 189.927 81.1245 185.521 76.5012C178.996 69.9314 170.784 71.3775 169.463 78.956Z" fill="white"/>
<path opacity="0.2" d="M179.576 87.0344C183.325 88.2127 187.85 93.756 189.002 98.4424L184.217 102.424C180.409 98.4359 176.9 94.1724 173.72 89.6677C174.586 87.7842 175.246 85.6776 179.576 87.0344Z" fill="black"/>
<path opacity="0.2" d="M215.773 273.604L217.736 282.201L210.818 284.709L208.855 276.122L215.773 273.604Z" fill="black"/>
<path opacity="0.2" d="M160.188 284.968H167.534L166.454 293.733H159.107L160.188 284.968Z" fill="black"/>
<path d="M136.64 80.1341C139.732 87.7236 142.247 95.5355 144.165 103.503C145.539 109.064 146.602 114.402 147.45 119.258C149.44 130.64 150.244 139.405 150.94 142.324L189.466 134.523C189.743 92.3454 177.032 72.3235 177.032 72.3235C173.888 72.1516 170.737 72.1724 167.596 72.386C166.936 72.4306 166.258 72.4931 165.579 72.5734C160.06 73.3611 154.591 74.4668 149.199 75.8851C148.173 76.144 147.146 76.4385 146.137 76.7331C141.067 78.2684 136.64 80.1341 136.64 80.1341Z" fill="#031F68"/>
<path opacity="0.7" d="M136.64 80.1341C139.732 87.7236 142.247 95.5355 144.165 103.503C145.539 109.064 146.602 114.402 147.45 119.258C149.44 130.64 150.244 139.405 150.94 142.324L189.466 134.523C189.743 92.3454 177.032 72.3235 177.032 72.3235C173.888 72.1516 170.737 72.1724 167.596 72.386C166.936 72.4306 166.258 72.4931 165.579 72.5734C160.06 73.3611 154.591 74.4668 149.199 75.8851C148.173 76.144 147.146 76.4385 146.137 76.7331C141.067 78.2684 136.64 80.1341 136.64 80.1341Z" fill="white"/>
<path d="M164.776 80.4824C166.284 83.1603 168.346 85.2491 170.962 92.533C170.801 94.1844 170.551 95.8626 170.239 97.5586C169.049 96.1958 167.799 94.845 166.49 93.506C164.606 86.3649 164.954 84.3297 163.249 80.8484L164.776 80.4824Z" fill="#031F68"/>
<path d="M165.142 82.8301L165.767 78.9382L162.937 78.3223L161.224 79.9112L165.142 82.8301Z" fill="#031F68"/>
<path d="M146.165 76.7334C155.725 83.3122 163.848 90.2301 170.266 97.5587C171.944 88.5788 171.542 80.1255 168.552 72.3327C171.394 72.1697 174.243 72.1697 177.086 72.3327C177.086 72.3327 189.77 92.3725 189.493 134.532L150.94 142.333C150.244 139.415 149.441 130.649 147.45 119.268C146.602 114.412 145.54 109.074 144.165 103.513C142.248 95.5448 139.732 87.7329 136.64 80.1433C136.64 80.1433 141.068 78.2688 146.165 76.7334Z" fill="#263238"/>
<path d="M147.307 57.1133C149.351 62.1745 152.243 71.6187 149.226 75.8587C151.181 77.2245 153.408 78.1524 155.754 78.5791C158.1 79.0058 160.511 78.9213 162.821 78.3313C167.338 77.3137 166.954 74.0913 165.606 72.547C159.456 72.3328 158.769 67.941 159.01 63.6206L147.307 57.1133Z" fill="#7F3E3B"/>
<path d="M162.937 78.3307C162.937 78.3307 161.67 80.8658 160.099 83.4455C156.796 82.4904 148.941 79.7322 148.387 75.7599C148.617 74.864 149.15 74.0754 149.896 73.5283C153.958 75.816 158.361 77.4374 162.937 78.3307Z" fill="white"/>
<path d="M162.937 78.3303C164.684 79.2643 166.292 80.4392 167.713 81.8205C169.542 79.8745 166.82 72.8495 165.811 72.2157C164.836 71.7734 163.746 71.6486 162.696 71.8586C162.696 71.8586 166.177 76.7592 162.937 78.3303Z" fill="white"/>
<path opacity="0.2" d="M152.038 59.7822L158.965 63.6563C158.897 64.6587 158.915 65.6651 159.018 66.6645C156.715 66.7984 153.153 64.9595 152.466 62.6565C152.151 61.732 152.006 60.7583 152.038 59.7822Z" fill="black"/>
<path d="M160.67 38.7872C162.669 40.9741 164.678 46.446 160.304 46.4014C155.93 46.3567 157.233 35.0202 160.67 38.7872Z" fill="#263238"/>
<path d="M143.826 50.8461C146.504 57.6212 147.727 61.7184 152.368 64.0929C159.349 67.6634 166.829 61.6292 166.222 54.1756C165.678 47.463 161.393 37.519 153.725 37.0459C152.033 36.9456 150.342 37.2755 148.811 38.0049C147.281 38.7343 145.96 39.8394 144.971 41.2171C143.983 42.5949 143.36 44.2005 143.159 45.8842C142.959 47.5679 143.188 49.2749 143.826 50.8461Z" fill="#7F3E3B"/>
<path d="M158.822 41.4651C163.366 39.1978 164.785 32.8601 157.26 31.2265C155.515 30.9245 153.73 30.9245 151.985 31.2265C151.985 31.2265 153.948 32.4405 153.27 34.2615C152.137 33.1638 150.68 32.4608 149.115 32.2566C147.551 32.0523 145.962 32.3579 144.585 33.1279C145.995 34.2347 146.307 37.6892 143.692 37.7607C139.747 37.8678 135.158 40.7331 137.444 44.7054C134.114 48.874 139.309 54.6672 146.673 55.2564C148.682 51.2127 145.442 45.232 145.442 45.232C149.155 45.1339 154.716 43.5003 158.822 41.4651Z" fill="#263238"/>
<path d="M138.559 44.822C138.559 44.822 135.194 44.3578 136.336 41.189C133.828 43.2956 135.667 45.2415 138.559 44.822Z" fill="#263238"/>
<path d="M139.255 45.3482C139.255 45.3482 135.988 44.3931 135.738 47.7494C134.31 44.7948 136.774 43.7772 139.255 45.3482Z" fill="#263238"/>
<path d="M143.04 57.4792C143.565 58.2099 144.23 58.8291 144.996 59.3011C145.762 59.773 146.614 60.0882 147.503 60.2285C149.904 60.5766 150.815 58.345 149.904 56.2384C149.092 54.3371 146.869 51.8645 144.549 52.4804C142.228 53.0963 141.746 55.6493 143.04 57.4792Z" fill="#7F3E3B"/>
<path d="M219.771 279.666L208.051 283.915C208.051 283.915 198.902 243.622 194.037 221.288C192.555 214.486 189.574 205.149 186.057 195.187C181.593 182.69 176.309 169.158 172.024 158.589C167.508 147.475 164.142 139.629 164.142 139.629L189.466 134.505C189.466 134.505 208.792 190.117 213.139 212.094C217.656 234.963 219.771 279.666 219.771 279.666Z" fill="#031F68"/>
<g opacity="0.3">
<path d="M219.771 279.666L208.051 283.915C208.051 283.915 198.902 243.622 194.037 221.288C192.555 214.486 189.574 205.149 186.057 195.187C181.593 182.69 176.309 169.158 172.024 158.589C167.508 147.475 164.142 139.629 164.142 139.629L189.466 134.505C189.466 134.505 208.792 190.117 213.139 212.094C217.656 234.963 219.771 279.666 219.771 279.666Z" fill="black"/>
</g>
<path opacity="0.2" d="M186.056 195.187C181.593 182.69 176.309 169.157 172.024 158.588L173.988 152.527C181.227 159.294 185.753 182.359 186.056 195.187Z" fill="black"/>
<path d="M175.809 137.29C175.809 137.29 180.326 200.667 180.602 222.242C180.897 245.835 169.891 292.038 169.891 292.038H156.447C156.447 292.038 161.803 250.343 160.018 226.973C158.018 200.837 150.967 142.325 150.967 142.325L175.809 137.29Z" fill="#031F68"/>
<g opacity="0.3">
<path d="M175.809 137.291C175.809 137.291 180.326 200.668 180.602 222.243C180.897 245.835 169.891 292.038 169.891 292.038H156.447C156.447 292.038 161.803 250.343 160.018 226.974C158.018 200.837 150.967 142.325 150.967 142.325L175.809 137.291Z" fill="black"/>
</g>
<path d="M171.47 292.333H155.635L155.68 287.602L172.22 286.646L171.47 292.333Z" fill="#263238"/>
<path d="M221.334 279.514L207.302 284.379L205.775 279.853L221.12 274.265L221.334 279.514Z" fill="#263238"/>
<path d="M154.921 49.2579C155.1 49.8203 155.546 50.1506 155.912 50.0524C156.278 49.9542 156.43 49.374 156.242 48.8027C156.055 48.2314 155.617 47.91 155.252 48.0082C154.886 48.1064 154.716 48.6956 154.921 49.2579Z" fill="#263238"/>
<path d="M161.237 47.1195C161.058 46.5557 161.214 46.003 161.585 45.885C161.956 45.767 162.402 46.1283 162.581 46.6921C162.761 47.2559 162.605 47.8086 162.234 47.9266C161.863 48.0446 161.417 47.6832 161.237 47.1195Z" fill="#263238"/>
<path d="M159.34 48.0796C160.576 49.5085 162.003 50.761 163.58 51.8019C163.278 52.1905 162.898 52.5113 162.465 52.7435C162.031 52.9757 161.553 53.1142 161.063 53.1498L159.34 48.0796Z" fill="#630F0F"/>
<path d="M158.662 57.9703C158.912 57.9194 159.159 57.8538 159.402 57.7739C159.446 57.7577 159.482 57.7259 159.503 57.6847C159.525 57.6434 159.53 57.5957 159.518 57.5507C159.502 57.5075 159.47 57.4722 159.428 57.4522C159.387 57.4322 159.339 57.4292 159.295 57.4436C158.605 57.6965 157.863 57.7807 157.134 57.689C156.404 57.5974 155.707 57.3327 155.1 56.917C155.084 56.901 155.065 56.8884 155.045 56.8798C155.024 56.8711 155.002 56.8667 154.979 56.8667C154.957 56.8667 154.935 56.8711 154.914 56.8798C154.893 56.8884 154.875 56.901 154.859 56.917C154.842 56.932 154.828 56.9506 154.819 56.9714C154.809 56.9921 154.804 57.0147 154.804 57.0375C154.804 57.0603 154.809 57.0828 154.819 57.1036C154.828 57.1244 154.842 57.1429 154.859 57.158C155.402 57.5495 156.02 57.8239 156.675 57.9638C157.329 58.1036 158.006 58.1058 158.662 57.9703Z" fill="#263238"/>
<path d="M152.288 47.8562C152.349 47.8467 152.406 47.8209 152.453 47.7816C152.5 47.7423 152.536 47.691 152.556 47.633C152.692 47.2159 152.925 46.8367 153.235 46.5265C153.545 46.2162 153.924 45.9837 154.341 45.8478C154.432 45.8246 154.51 45.7666 154.558 45.6865C154.607 45.6063 154.622 45.5104 154.6 45.4193C154.575 45.3306 154.516 45.2554 154.436 45.2102C154.355 45.1651 154.261 45.1536 154.172 45.1783C153.645 45.3505 153.166 45.6461 152.777 46.0404C152.387 46.4348 152.097 46.9166 151.931 47.4456C151.916 47.4889 151.91 47.5349 151.913 47.5807C151.916 47.6265 151.928 47.6712 151.949 47.7121C151.97 47.753 151.999 47.7892 152.034 47.8186C152.069 47.848 152.11 47.8699 152.154 47.883C152.201 47.8854 152.247 47.8762 152.288 47.8562Z" fill="#263238"/>
<path d="M163.285 44.0092C163.354 43.9967 163.416 43.9623 163.463 43.911C163.497 43.8794 163.523 43.8413 163.541 43.7991C163.559 43.7569 163.569 43.7115 163.569 43.6656C163.569 43.6197 163.559 43.5742 163.541 43.532C163.523 43.4899 163.497 43.4518 163.463 43.4201C163.092 43.0147 162.627 42.7061 162.109 42.521C161.591 42.3359 161.035 42.2799 160.491 42.3579C160.401 42.3772 160.322 42.4308 160.27 42.5074C160.218 42.584 160.198 42.6775 160.214 42.7685C160.232 42.858 160.283 42.9372 160.359 42.9889C160.434 43.0407 160.526 43.0609 160.616 43.0452C161.05 42.9907 161.492 43.0436 161.901 43.1992C162.31 43.3548 162.675 43.6084 162.964 43.9378C163.008 43.9734 163.06 43.9983 163.116 44.0107C163.172 44.0231 163.23 44.0226 163.285 44.0092Z" fill="#263238"/>
<path d="M168.829 302.401C169.331 302.442 169.832 302.31 170.248 302.026C170.375 301.916 170.474 301.778 170.537 301.623C170.601 301.468 170.627 301.301 170.614 301.134C170.613 301.033 170.586 300.934 170.534 300.848C170.482 300.761 170.408 300.691 170.319 300.643C169.516 300.223 167.133 301.687 166.865 301.848C166.835 301.866 166.81 301.893 166.795 301.924C166.779 301.956 166.772 301.991 166.776 302.026C166.782 302.06 166.798 302.092 166.821 302.118C166.845 302.143 166.876 302.161 166.91 302.169C167.538 302.319 168.182 302.397 168.829 302.401ZM169.936 300.884C170.012 300.882 170.089 300.897 170.159 300.928C170.194 300.949 170.222 300.98 170.241 301.016C170.26 301.052 170.269 301.093 170.266 301.134C170.281 301.251 170.267 301.37 170.225 301.481C170.183 301.592 170.114 301.69 170.025 301.767C169.623 302.098 168.659 302.142 167.418 301.892C168.172 301.404 169.011 301.061 169.891 300.884H169.936Z" fill="#031F68"/>
<path d="M166.954 302.115C166.981 302.123 167.009 302.123 167.035 302.115C167.793 301.705 169.284 300.089 169.132 299.277C169.109 299.149 169.042 299.033 168.943 298.95C168.843 298.867 168.718 298.821 168.588 298.821C168.456 298.801 168.32 298.81 168.192 298.848C168.064 298.887 167.946 298.954 167.847 299.045C166.954 299.741 166.785 301.856 166.776 301.946C166.773 301.97 166.776 301.995 166.784 302.018C166.792 302.042 166.805 302.063 166.822 302.081C166.839 302.099 166.859 302.112 166.882 302.122C166.905 302.131 166.93 302.134 166.954 302.133V302.115ZM168.463 299.143H168.543C168.766 299.143 168.784 299.277 168.793 299.321C168.882 299.803 167.901 301.017 167.169 301.597C167.232 300.758 167.542 299.957 168.061 299.294C168.176 299.206 168.318 299.161 168.463 299.169V299.143Z" fill="#031F68"/>
<path d="M220.772 289.708C221.977 289.708 224.101 289.529 224.744 288.664C224.84 288.538 224.904 288.392 224.93 288.236C224.956 288.081 224.945 287.921 224.896 287.771C224.873 287.679 224.827 287.595 224.761 287.528C224.695 287.46 224.612 287.412 224.521 287.387C223.539 287.075 220.95 289.172 220.665 289.404C220.636 289.427 220.615 289.458 220.605 289.494C220.595 289.529 220.597 289.567 220.611 289.601C220.623 289.634 220.644 289.662 220.673 289.681C220.702 289.701 220.737 289.71 220.772 289.708ZM224.342 287.691H224.405C224.443 287.698 224.477 287.718 224.503 287.747C224.529 287.776 224.544 287.813 224.548 287.851C224.583 287.949 224.593 288.054 224.578 288.157C224.562 288.26 224.521 288.357 224.458 288.44C224.092 288.922 222.923 289.244 221.28 289.333C222.325 288.556 223.771 287.619 224.342 287.691Z" fill="#031F68"/>
<path d="M220.771 289.708C220.811 289.721 220.855 289.721 220.896 289.708C221.69 289.137 223.092 287.209 222.788 286.432C222.726 286.245 222.538 286.04 222.056 286.093C221.882 286.11 221.713 286.163 221.559 286.247C221.406 286.331 221.271 286.446 221.164 286.584C220.405 287.53 220.61 289.503 220.619 289.592C220.623 289.621 220.633 289.649 220.651 289.672C220.668 289.696 220.691 289.714 220.717 289.726L220.771 289.708ZM222.279 286.397C222.431 286.397 222.458 286.495 222.467 286.522C222.645 286.986 221.726 288.459 220.949 289.2C220.858 288.361 221.033 287.515 221.449 286.78C221.527 286.68 221.623 286.596 221.734 286.533C221.844 286.47 221.966 286.43 222.092 286.414L222.279 286.397Z" fill="#031F68"/>
<path d="M207.302 102.646L212.738 97.4863L215.3 105.386C215.3 105.386 210.176 109.689 208.07 106.966L207.302 102.646Z" fill="#7F3E3B"/>
<path d="M219.976 95.9248L219.869 103.468L215.29 105.387L212.728 97.4869L219.976 95.9248Z" fill="#7F3E3B"/>
<path opacity="0.5" d="M227.777 69.5564L248.995 65.1392L255.606 96.8968L234.388 101.314L227.777 69.5564Z" fill="white"/>
<path opacity="0.5" d="M238.17 119.476L259.389 115.059L266 146.816L244.782 151.233L238.17 119.476Z" fill="white"/>
<path d="M133.186 86.5879C132.436 89.2658 131.865 91.7473 131.284 94.3449C130.704 96.9425 130.258 99.549 129.838 102.191C129.419 104.833 129.115 107.547 128.946 110.287C128.722 113.222 128.806 116.172 129.196 119.089C129.326 119.954 129.514 120.81 129.758 121.651C129.903 122.132 130.073 122.606 130.267 123.07C130.366 123.333 130.482 123.59 130.615 123.838L130.82 124.239L131.106 124.712C131.839 125.856 132.814 126.825 133.962 127.551C134.873 128.121 135.858 128.562 136.89 128.863C138.52 129.325 140.204 129.565 141.898 129.577C143.365 129.594 144.833 129.514 146.29 129.336C151.686 128.612 156.962 127.178 161.982 125.07L160.491 119.758L156.796 120.169C155.546 120.303 154.305 120.392 153.074 120.49C150.675 120.685 148.267 120.756 145.861 120.705C144.755 120.677 143.652 120.581 142.558 120.419C141.68 120.318 140.82 120.092 140.005 119.749C139.81 119.663 139.631 119.542 139.479 119.392C139.434 119.321 139.541 119.392 139.666 119.499C139.67 119.517 139.67 119.535 139.666 119.553V119.437C139.666 119.339 139.613 119.196 139.577 119.035C139.501 118.631 139.448 118.223 139.416 117.812C139.31 115.613 139.397 113.409 139.675 111.225C139.961 108.877 140.318 106.467 140.773 104.084C141.666 99.2634 142.764 94.2646 143.924 89.5693L133.186 86.5879Z" fill="#803E3C"/>
<path d="M134.659 81.2057C128.901 85.2494 127 106.2 127 106.2L144.853 108.369C146.193 102.323 146.988 96.1685 147.227 89.9804C147.468 80.0364 141.639 76.2784 134.659 81.2057Z" fill="#031F68"/>
<path opacity="0.7" d="M134.659 81.2057C128.901 85.2494 127 106.2 127 106.2L144.853 108.369C146.193 102.323 146.988 96.1685 147.227 89.9804C147.468 80.0364 141.639 76.2784 134.659 81.2057Z" fill="white"/>
<path d="M158.68 120.017L163.919 114.662L167.213 123.588C167.213 123.588 161.759 127.087 159.59 124.374L158.68 120.017Z" fill="#7F3E3B"/>
<path d="M169.971 113.921L172.328 121.357L167.177 123.544L163.919 114.697L169.971 113.921Z" fill="#7F3E3B"/>
<path d="M394.24 65.3428H394.177L357.702 80.9174L307.798 102.227C307.603 102.309 307.394 102.352 307.182 102.353C306.971 102.354 306.761 102.313 306.565 102.233L255.079 80.8729L217.709 65.3682L217.652 65.3428H217.588C216.998 65.3434 216.433 65.5779 216.016 65.9949C215.599 66.4118 215.365 66.9772 215.364 67.5668V164.154C215.365 164.743 215.599 165.309 216.016 165.726C216.433 166.143 216.998 166.377 217.588 166.378H394.24C394.83 166.377 395.395 166.143 395.812 165.726C396.229 165.309 396.464 164.743 396.464 164.154V67.5668C396.464 66.9772 396.229 66.4118 395.812 65.9949C395.395 65.5779 394.83 65.3434 394.24 65.3428Z" fill="white"/>
<path d="M394.399 65.9779C394.334 65.9779 394.271 65.958 394.218 65.921L306.349 4.72696C306.082 4.5416 305.764 4.44254 305.439 4.44309C305.113 4.44365 304.796 4.54379 304.529 4.73006L217.294 65.9203C217.225 65.9684 217.14 65.9871 217.057 65.9724C216.974 65.9577 216.9 65.9108 216.852 65.842C216.804 65.7731 216.785 65.688 216.799 65.6051C216.814 65.5223 216.86 65.4485 216.929 65.4L304.164 4.20975C304.538 3.94902 304.982 3.80886 305.438 3.80811C305.893 3.80736 306.338 3.94606 306.712 4.20557L394.581 65.3994C394.636 65.4381 394.678 65.4935 394.7 65.5575C394.722 65.6215 394.722 65.6909 394.702 65.7554C394.682 65.8199 394.642 65.8763 394.587 65.9163C394.532 65.9563 394.467 65.9779 394.399 65.9779Z" fill="#3F3D56"/>
<path d="M222.278 68.1475L305.525 6.45166L389.403 72.5373L309.814 119.718L266.604 109.87L222.278 68.1475Z" fill="#E6E6E6"/>
<path d="M270.252 148.86H229.126C228.616 148.861 228.127 148.659 227.767 148.3C227.406 147.94 227.203 147.451 227.202 146.942C227.201 146.432 227.403 145.943 227.763 145.582C228.122 145.221 228.611 145.018 229.12 145.018H270.252C270.761 145.017 271.25 145.219 271.611 145.578C271.972 145.938 272.175 146.427 272.176 146.936C272.177 147.446 271.975 147.935 271.615 148.296C271.255 148.656 270.767 148.86 270.257 148.86H270.252Z" fill="#031F68"/>
<path d="M243.881 140.6H229.126C228.617 140.6 228.128 140.398 227.767 140.038C227.407 139.679 227.204 139.19 227.203 138.681C227.202 138.172 227.404 137.683 227.763 137.322C228.123 136.961 228.611 136.758 229.12 136.757H243.881C244.133 136.756 244.384 136.805 244.617 136.902C244.85 136.998 245.062 137.139 245.241 137.317C245.42 137.495 245.562 137.707 245.659 137.94C245.756 138.173 245.806 138.423 245.807 138.675C245.807 138.928 245.758 139.178 245.661 139.411C245.565 139.644 245.424 139.857 245.245 140.035C245.067 140.214 244.855 140.356 244.622 140.453C244.389 140.549 244.139 140.599 243.887 140.6H243.881Z" fill="#031F68"/>
<path d="M306.696 102.511C306.383 102.511 306.073 102.451 305.784 102.332L254.443 81.0297V14.3485C254.444 13.7589 254.679 13.1936 255.096 12.7767C255.513 12.3597 256.078 12.1252 256.668 12.1245H355.161C355.75 12.1252 356.316 12.3597 356.733 12.7767C357.15 13.1936 357.384 13.7589 357.385 14.3485V81.0763L357.288 81.1175L307.635 102.322C307.338 102.447 307.018 102.511 306.696 102.511Z" fill="white"/>
<path d="M306.696 102.669C306.362 102.67 306.032 102.605 305.724 102.479L254.285 81.1355V14.3482C254.285 13.7165 254.537 13.1108 254.983 12.6641C255.43 12.2173 256.036 11.966 256.667 11.9653H355.161C355.792 11.966 356.398 12.2173 356.845 12.6641C357.292 13.1108 357.543 13.7165 357.544 14.3482V81.1808L307.697 102.468C307.38 102.601 307.04 102.67 306.696 102.669ZM254.92 80.7111L305.966 101.892C306.442 102.085 306.975 102.082 307.449 101.883L356.908 80.7613V14.3482C356.908 13.8849 356.723 13.4408 356.396 13.1132C356.068 12.7856 355.624 12.6013 355.161 12.6008H256.667C256.204 12.6013 255.76 12.7856 255.432 13.1132C255.105 13.4408 254.921 13.8849 254.92 14.3482L254.92 80.7111Z" fill="#3F3D56"/>
<path d="M393.764 65.3428H393.7L357.226 80.9174L307.322 102.227C307.127 102.309 306.917 102.352 306.706 102.353C306.494 102.354 306.285 102.313 306.089 102.233L254.602 80.8729L217.232 65.3682L217.175 65.3428H217.111C216.522 65.3434 215.956 65.5779 215.539 65.9949C215.122 66.4118 214.888 66.9772 214.887 67.5668V164.154C214.888 164.743 215.122 165.309 215.539 165.726C215.956 166.143 216.522 166.377 217.111 166.378H393.764C394.353 166.377 394.919 166.143 395.335 165.726C395.752 165.309 395.987 164.743 395.988 164.154V67.5668C395.987 66.9772 395.752 66.4118 395.335 65.9949C394.919 65.5779 394.353 65.3434 393.764 65.3428ZM395.352 164.154C395.352 164.575 395.185 164.979 394.887 165.277C394.589 165.575 394.185 165.742 393.764 165.742H217.111C216.69 165.742 216.286 165.575 215.988 165.277C215.69 164.979 215.523 164.575 215.523 164.154V67.5668C215.523 67.156 215.683 66.7613 215.967 66.4652C216.252 66.1692 216.64 65.9947 217.051 65.9782L254.602 81.5592L305.844 102.821C306.399 103.047 307.02 103.043 307.573 102.811L357.226 81.6069L393.827 65.9782C394.237 65.9959 394.624 66.1709 394.908 66.4668C395.192 66.7627 395.351 67.1567 395.352 67.5668V164.154Z" fill="#3F3D56"/>
<path d="M298.703 37.0498H263.753C263.08 37.0489 262.434 36.7807 261.959 36.3041C261.483 35.8275 261.215 35.1816 261.215 34.5081C261.215 33.8346 261.483 33.1886 261.959 32.712C262.434 32.2355 263.08 31.9673 263.753 31.9663H298.703C299.376 31.9673 300.022 32.2355 300.498 32.712C300.974 33.1886 301.241 33.8346 301.241 34.5081C301.241 35.1816 300.974 35.8275 300.498 36.3041C300.022 36.7807 299.376 37.0489 298.703 37.0498Z" fill="#031F68"/>
<path d="M280.593 26.2476H263.754C263.08 26.2476 262.433 25.9798 261.956 25.5031C261.48 25.0264 261.212 24.3799 261.212 23.7058C261.212 23.0317 261.48 22.3852 261.956 21.9085C262.433 21.4318 263.08 21.1641 263.754 21.1641H280.593C281.267 21.1641 281.913 21.4318 282.39 21.9085C282.867 22.3852 283.135 23.0317 283.135 23.7058C283.135 24.3799 282.867 25.0264 282.39 25.5031C281.913 25.9798 281.267 26.2476 280.593 26.2476Z" fill="#031F68"/>
<path d="M332.053 62.4673H278.676C278.003 62.4664 277.357 62.1981 276.881 61.7216C276.406 61.245 276.138 60.599 276.138 59.9256C276.138 59.2521 276.406 58.6061 276.881 58.1295C277.357 57.653 278.003 57.3847 278.676 57.3838H332.053C332.727 57.3847 333.372 57.653 333.848 58.1295C334.324 58.6061 334.592 59.2521 334.592 59.9256C334.592 60.599 334.324 61.245 333.848 61.7216C333.372 62.1981 332.727 62.4664 332.053 62.4673Z" fill="#CCCCCC"/>
<path d="M332.053 74.2232H278.676C278.002 74.2232 277.356 73.9554 276.879 73.4787C276.402 73.002 276.135 72.3555 276.135 71.6814C276.135 71.0073 276.402 70.3608 276.879 69.8841C277.356 69.4074 278.002 69.1396 278.676 69.1396H332.053C332.727 69.1396 333.374 69.4074 333.851 69.8841C334.327 70.3608 334.595 71.0073 334.595 71.6814C334.595 72.3555 334.327 73.002 333.851 73.4787C333.374 73.9554 332.727 74.2232 332.053 74.2232Z" fill="#CCCCCC"/>
<path d="M392.778 90.4324C406.127 90.4324 416.947 79.6116 416.947 66.2636C416.947 52.9155 406.127 42.0947 392.778 42.0947C379.43 42.0947 368.61 52.9155 368.61 66.2636C368.61 79.6116 379.43 90.4324 392.778 90.4324Z" fill="#031F68"/>
<path d="M249.896 309.928H55.5102C55.3749 309.928 55.2451 309.874 55.1494 309.778C55.0538 309.683 55 309.553 55 309.417C55 309.282 55.0538 309.152 55.1494 309.057C55.2451 308.961 55.3749 308.907 55.5102 308.907H249.896C250.031 308.907 250.161 308.961 250.257 309.057C250.353 309.152 250.406 309.282 250.406 309.417C250.406 309.553 250.353 309.683 250.257 309.778C250.161 309.874 250.031 309.928 249.896 309.928Z" fill="#3F3D56"/>
<path d="M168.027 24.1214C167.862 24.0239 167.673 23.9748 167.481 23.9798C167.29 23.9849 167.104 24.0438 166.944 24.1498C166.784 24.2558 166.658 24.4047 166.579 24.5793C166.5 24.7539 166.472 24.9473 166.498 25.1372L167.285 30.9143C167.296 30.9995 167.29 31.086 167.268 31.1689C167.244 31.2506 167.202 31.3263 167.147 31.3914L162.736 36.6177C162.588 36.7859 162.502 36.9988 162.49 37.2222C162.478 37.4455 162.542 37.6663 162.671 37.8491L162.675 37.8558C162.799 38.0405 162.98 38.1787 163.192 38.2482C163.403 38.3177 163.631 38.3146 163.84 38.2395L167.026 37.1581C167.131 37.1231 167.245 37.1176 167.353 37.142C167.462 37.1664 167.561 37.2199 167.642 37.2967C167.702 37.3523 167.75 37.4197 167.783 37.4948C167.815 37.5698 167.832 37.6508 167.832 37.7326L167.957 49.084C167.958 49.2483 167.999 49.4098 168.077 49.5546C168.155 49.6994 168.266 49.8231 168.403 49.915C168.538 50.0068 168.694 50.0645 168.857 50.0835C169.019 50.1024 169.184 50.082 169.337 50.0239L193.116 40.9299C193.296 40.8617 193.452 40.7442 193.568 40.5911C193.683 40.4379 193.753 40.2553 193.769 40.0641C193.786 39.873 193.748 39.6811 193.66 39.5105C193.572 39.34 193.438 39.1977 193.273 39.1001L192.949 38.9078L168.027 24.1214ZM166.9 25.0816C166.885 24.9676 166.902 24.8516 166.95 24.7469C166.997 24.6421 167.073 24.5529 167.169 24.4894C167.265 24.4259 167.377 24.3907 167.492 24.3878C167.607 24.3849 167.721 24.4145 167.82 24.4731L192.733 39.2551L193.065 39.4517C193.164 39.5106 193.244 39.596 193.296 39.6982C193.348 39.8004 193.371 39.9152 193.361 40.0295C193.352 40.1439 193.31 40.2533 193.241 40.3452C193.172 40.437 193.079 40.5077 192.972 40.5492L169.193 49.6432C169.101 49.6782 169.002 49.6905 168.904 49.679C168.807 49.6675 168.713 49.6326 168.632 49.5772C168.55 49.5218 168.484 49.4476 168.437 49.3609C168.391 49.2742 168.366 49.1776 168.364 49.0792L168.24 37.7279C168.24 37.6156 168.221 37.5041 168.183 37.3983L192.392 40.1799C192.486 40.1917 192.582 40.1701 192.662 40.1189C192.742 40.0677 192.802 39.9901 192.831 39.8995C192.86 39.8089 192.857 39.711 192.821 39.6228C192.786 39.5345 192.72 39.4614 192.637 39.4162C192.616 39.4048 192.595 39.3956 192.573 39.3884L167.695 31.0842C167.701 31.009 167.699 30.9334 167.688 30.8588L166.9 25.0816Z" fill="#F1F1F1"/>
<path d="M168.027 24.1214C167.862 24.0239 167.673 23.9748 167.481 23.9798C167.29 23.9849 167.104 24.0438 166.944 24.1498C166.784 24.2558 166.658 24.4047 166.579 24.5793C166.5 24.7539 166.472 24.9473 166.498 25.1372L167.285 30.9143C167.296 30.9995 167.29 31.086 167.268 31.1689C167.244 31.2506 167.202 31.3263 167.147 31.3914L162.736 36.6177C162.588 36.7859 162.502 36.9988 162.49 37.2222C162.478 37.4455 162.542 37.6663 162.671 37.8491L162.675 37.8558C162.799 38.0405 162.98 38.1787 163.192 38.2482C163.403 38.3177 163.631 38.3146 163.84 38.2395L167.026 37.1581C167.131 37.1231 167.245 37.1176 167.353 37.142C167.462 37.1664 167.561 37.2199 167.642 37.2967C167.702 37.3523 167.75 37.4197 167.783 37.4948C167.815 37.5698 167.832 37.6508 167.832 37.7326L167.957 49.084C167.958 49.2483 167.999 49.4098 168.077 49.5546C168.155 49.6994 168.266 49.8231 168.403 49.915C168.538 50.0068 168.694 50.0645 168.857 50.0835C169.019 50.1024 169.184 50.082 169.337 50.0239L193.116 40.9299C193.296 40.8617 193.452 40.7442 193.568 40.5911C193.683 40.4379 193.753 40.2553 193.769 40.0641C193.786 39.873 193.748 39.6811 193.66 39.5105C193.572 39.34 193.438 39.1977 193.273 39.1001L192.949 38.9078L168.027 24.1214ZM166.9 25.0816C166.885 24.9676 166.902 24.8516 166.95 24.7469C166.997 24.6421 167.073 24.5529 167.169 24.4894C167.265 24.4259 167.377 24.3907 167.492 24.3878C167.607 24.3849 167.721 24.4145 167.82 24.4731L192.733 39.2551L193.065 39.4517C193.164 39.5106 193.244 39.596 193.296 39.6982C193.348 39.8004 193.371 39.9152 193.361 40.0295C193.352 40.1439 193.31 40.2533 193.241 40.3452C193.172 40.437 193.079 40.5077 192.972 40.5492L169.193 49.6432C169.101 49.6782 169.002 49.6905 168.904 49.679C168.807 49.6675 168.713 49.6326 168.632 49.5772C168.55 49.5218 168.484 49.4476 168.437 49.3609C168.391 49.2742 168.366 49.1776 168.364 49.0792L168.24 37.7279C168.24 37.6156 168.221 37.5041 168.183 37.3983C168.13 37.246 168.04 37.109 167.922 36.9992C167.906 36.9831 167.888 36.9682 167.87 36.9531L167.869 36.9515C167.735 36.8412 167.576 36.7669 167.405 36.7356C167.235 36.7043 167.06 36.717 166.896 36.7726L163.708 37.8552C163.582 37.9007 163.445 37.9026 163.318 37.8603C163.191 37.818 163.083 37.7342 163.009 37.6224L163.007 37.619C162.929 37.5098 162.89 37.3771 162.897 37.243C162.904 37.1088 162.957 36.9811 163.046 36.8808L167.458 31.6546C167.505 31.5998 167.546 31.54 167.58 31.4761L167.581 31.4749C167.614 31.4138 167.64 31.3493 167.659 31.2827C167.678 31.218 167.69 31.1515 167.695 31.0842C167.701 31.009 167.699 30.9334 167.688 30.8588L166.9 25.0816Z" fill="#E5E5E5"/>
<path d="M167.695 31.084L192.573 39.3882C192.595 39.3954 192.616 39.4047 192.637 39.416C192.72 39.4613 192.786 39.5343 192.821 39.6226C192.857 39.7109 192.86 39.8088 192.831 39.8994C192.802 39.99 192.742 40.0676 192.662 40.1188C192.582 40.17 192.486 40.1915 192.392 40.1797L168.183 37.3981L167.755 37.3494L167.803 36.9451L167.869 36.9513L167.87 36.953L192.438 39.7738L167.582 31.4748L167.58 31.4759L167.472 31.4388L167.601 31.0522L167.695 31.084Z" fill="#E5E5E5"/>
<path d="M445.461 0.141936L420.54 14.9283L420.216 15.1206C420.051 15.2182 419.917 15.3605 419.829 15.5311C419.741 15.7016 419.703 15.8935 419.719 16.0846C419.735 16.2758 419.805 16.4584 419.921 16.6116C420.037 16.7647 420.193 16.8822 420.372 16.9504L444.151 26.0444C444.304 26.1025 444.469 26.1229 444.632 26.104C444.795 26.085 444.95 26.0273 445.086 25.9356C445.222 25.8436 445.334 25.7199 445.412 25.5751C445.489 25.4303 445.531 25.2688 445.532 25.1045L445.657 13.7531C445.656 13.6713 445.673 13.5903 445.706 13.5153C445.739 13.4403 445.787 13.3728 445.847 13.3172C445.927 13.2404 446.027 13.1869 446.135 13.1625C446.244 13.1381 446.357 13.1437 446.463 13.1786L449.649 14.26C449.858 14.3352 450.086 14.3382 450.297 14.2687C450.508 14.1992 450.69 14.061 450.813 13.8763L450.818 13.8696C450.947 13.6868 451.01 13.466 450.999 13.2427C450.987 13.0193 450.9 12.8064 450.753 12.6382L446.341 7.41193C446.286 7.34684 446.245 7.27111 446.22 7.18944C446.198 7.10648 446.192 7.02 446.203 6.93482L446.991 1.15766C447.017 0.967777 446.989 0.774439 446.91 0.599804C446.831 0.425169 446.704 0.276312 446.545 0.170289C446.385 0.0642656 446.199 0.00536509 446.007 0.000349414C445.816 -0.00466626 445.626 0.0444113 445.461 0.141936ZM446.588 1.10218L445.801 6.87931C445.79 6.95393 445.787 7.02954 445.793 7.1047L420.916 15.4089C420.894 15.4161 420.872 15.4253 420.852 15.4367C420.768 15.4819 420.703 15.555 420.667 15.6433C420.632 15.7315 420.628 15.8294 420.657 15.92C420.686 16.0106 420.746 16.0882 420.826 16.1394C420.907 16.1906 421.002 16.2122 421.097 16.2004L445.306 13.4188C445.268 13.5246 445.249 13.6361 445.249 13.7484L445.124 25.0997C445.123 25.1981 445.098 25.2947 445.052 25.3814C445.005 25.4681 444.938 25.5423 444.857 25.5977C444.776 25.6531 444.682 25.688 444.584 25.6995C444.487 25.711 444.387 25.6987 444.296 25.6637L420.517 16.5697C420.41 16.5282 420.316 16.4575 420.248 16.3657C420.179 16.2738 420.137 16.1644 420.127 16.05C420.118 15.9357 420.14 15.8209 420.193 15.7187C420.245 15.6165 420.325 15.5311 420.423 15.4722L420.755 15.2756L445.669 0.49364C445.768 0.435011 445.881 0.405443 445.996 0.408316C446.111 0.411189 446.223 0.446389 446.319 0.509887C446.415 0.573385 446.491 0.66261 446.539 0.767353C446.586 0.872097 446.604 0.988157 446.588 1.10218Z" fill="#F1F1F1"/>
<path d="M445.461 0.141936L420.54 14.9283L420.216 15.1206C420.051 15.2182 419.917 15.3605 419.829 15.5311C419.741 15.7016 419.703 15.8935 419.719 16.0846C419.735 16.2758 419.805 16.4584 419.921 16.6116C420.037 16.7647 420.193 16.8822 420.372 16.9504L444.151 26.0444C444.304 26.1025 444.469 26.1229 444.632 26.104C444.795 26.085 444.95 26.0273 445.086 25.9356C445.222 25.8436 445.334 25.7199 445.412 25.5751C445.489 25.4303 445.531 25.2688 445.532 25.1045L445.657 13.7531C445.656 13.6713 445.673 13.5903 445.706 13.5153C445.739 13.4403 445.787 13.3728 445.847 13.3172C445.927 13.2404 446.027 13.1869 446.135 13.1625C446.244 13.1381 446.357 13.1437 446.463 13.1786L449.649 14.26C449.858 14.3352 450.086 14.3382 450.297 14.2687C450.508 14.1992 450.69 14.061 450.813 13.8763L450.818 13.8696C450.947 13.6868 451.01 13.466 450.999 13.2427C450.987 13.0193 450.9 12.8064 450.753 12.6382L446.341 7.41193C446.286 7.34684 446.245 7.27111 446.22 7.18944C446.198 7.10648 446.192 7.02 446.203 6.93482L446.991 1.15766C447.017 0.967777 446.989 0.774439 446.91 0.599804C446.831 0.425169 446.704 0.276312 446.545 0.170289C446.385 0.0642656 446.199 0.00536509 446.007 0.000349414C445.816 -0.00466626 445.626 0.0444113 445.461 0.141936ZM446.588 1.10218L445.801 6.87933C445.79 6.95395 445.787 7.02955 445.793 7.10471C445.798 7.17197 445.81 7.2385 445.83 7.30318C445.849 7.36984 445.874 7.43429 445.907 7.49545L445.909 7.4966C445.943 7.56047 445.983 7.62033 446.031 7.67507L450.442 12.9013C450.532 13.0016 450.584 13.1293 450.591 13.2635C450.599 13.3977 450.56 13.5303 450.482 13.6395L450.479 13.6429C450.406 13.7547 450.297 13.8385 450.17 13.8808C450.044 13.9231 449.906 13.9212 449.781 13.8757L446.593 12.7931C446.429 12.7375 446.253 12.7248 446.083 12.7561C445.913 12.7874 445.753 12.8617 445.62 12.972L445.618 12.9737C445.601 12.9887 445.583 13.0036 445.567 13.0197C445.449 13.1295 445.359 13.2665 445.306 13.4188C445.268 13.5246 445.249 13.6361 445.249 13.7484L445.124 25.0997C445.123 25.1981 445.098 25.2947 445.051 25.3814C445.005 25.4681 444.938 25.5423 444.857 25.5977C444.776 25.6531 444.682 25.688 444.584 25.6995C444.487 25.711 444.387 25.6987 444.296 25.6637L420.517 16.5697C420.41 16.5282 420.316 16.4575 420.248 16.3657C420.179 16.2738 420.137 16.1644 420.127 16.0501C420.118 15.9357 420.14 15.8209 420.193 15.7187C420.245 15.6165 420.325 15.5311 420.423 15.4722L420.755 15.2756L445.669 0.493647C445.768 0.435019 445.881 0.405451 445.996 0.408324C446.111 0.411197 446.223 0.446397 446.319 0.509895C446.415 0.573393 446.491 0.662618 446.539 0.767361C446.586 0.872105 446.604 0.988157 446.588 1.10218Z" fill="#E5E5E5"/>
<path d="M445.887 7.07324L446.016 7.45981L445.909 7.4969L445.907 7.49575L421.05 15.7948L445.619 12.974L445.62 12.9723L445.686 12.9661L445.733 13.3704L445.306 13.4191L421.097 16.2007C421.002 16.2125 420.907 16.191 420.826 16.1398C420.746 16.0886 420.687 16.011 420.658 15.9204C420.628 15.8298 420.632 15.7319 420.668 15.6436C420.703 15.5553 420.768 15.4822 420.852 15.437C420.872 15.4257 420.894 15.4164 420.916 15.4092L445.793 7.10504L445.887 7.07324Z" fill="#E5E5E5"/>
<path d="M232.205 206.744C232.034 206.831 231.892 206.965 231.794 207.129C231.696 207.294 231.646 207.483 231.65 207.674C231.654 207.866 231.713 208.053 231.818 208.213C231.923 208.373 232.072 208.5 232.246 208.579L237.55 211.001C237.628 211.037 237.698 211.089 237.756 211.152C237.812 211.216 237.854 211.291 237.88 211.373L239.939 217.895C240.003 218.109 240.136 218.296 240.319 218.425C240.501 218.555 240.722 218.619 240.945 218.608L240.953 218.607C241.176 218.602 241.389 218.522 241.561 218.381C241.733 218.239 241.852 218.045 241.9 217.828L242.689 214.557C242.716 214.449 242.771 214.351 242.85 214.272C242.929 214.193 243.027 214.137 243.135 214.11C243.214 214.089 243.297 214.085 243.378 214.097C243.459 214.11 243.536 214.139 243.605 214.183L253.266 220.144C253.406 220.231 253.564 220.282 253.728 220.294C253.892 220.306 254.056 220.277 254.207 220.211C254.357 220.146 254.489 220.045 254.592 219.917C254.695 219.79 254.766 219.64 254.799 219.479L259.82 194.521C259.858 194.333 259.843 194.138 259.775 193.958C259.707 193.779 259.59 193.622 259.437 193.506C259.285 193.39 259.102 193.32 258.911 193.303C258.72 193.286 258.528 193.323 258.357 193.411L258.022 193.582L232.205 206.744ZM232.414 208.209C232.31 208.161 232.221 208.085 232.158 207.989C232.095 207.893 232.06 207.781 232.058 207.665C232.055 207.55 232.085 207.437 232.144 207.338C232.203 207.24 232.289 207.159 232.391 207.107L258.2 193.949L258.543 193.774C258.646 193.722 258.761 193.7 258.875 193.711C258.989 193.721 259.099 193.763 259.19 193.833C259.282 193.902 259.352 193.996 259.393 194.103C259.433 194.21 259.443 194.327 259.421 194.439L254.4 219.398C254.38 219.494 254.337 219.584 254.276 219.661C254.214 219.737 254.134 219.798 254.044 219.837C253.954 219.876 253.855 219.893 253.757 219.886C253.659 219.879 253.564 219.848 253.48 219.797L243.819 213.836C243.724 213.775 243.62 213.732 243.51 213.708L258.799 194.732C258.86 194.659 258.892 194.566 258.892 194.471C258.892 194.376 258.858 194.284 258.797 194.211C258.736 194.138 258.651 194.089 258.558 194.072C258.464 194.055 258.367 194.071 258.284 194.117C258.264 194.128 258.245 194.141 258.227 194.156L237.913 210.745C237.852 210.7 237.787 210.662 237.718 210.631L232.414 208.209Z" fill="#F1F1F1"/>
<path d="M232.205 206.744C232.034 206.831 231.892 206.965 231.794 207.129C231.696 207.294 231.646 207.483 231.65 207.674C231.654 207.866 231.713 208.053 231.818 208.213C231.923 208.373 232.072 208.5 232.246 208.579L237.55 211.001C237.628 211.037 237.698 211.089 237.756 211.152C237.812 211.216 237.854 211.291 237.88 211.373L239.939 217.895C240.003 218.109 240.136 218.296 240.319 218.425C240.501 218.555 240.722 218.619 240.945 218.608L240.953 218.607C241.176 218.602 241.389 218.522 241.561 218.381C241.733 218.239 241.852 218.045 241.9 217.828L242.689 214.557C242.716 214.449 242.771 214.351 242.85 214.272C242.929 214.193 243.027 214.137 243.135 214.11C243.214 214.089 243.297 214.085 243.378 214.097C243.459 214.11 243.536 214.139 243.605 214.183L253.266 220.144C253.406 220.231 253.564 220.282 253.728 220.294C253.892 220.306 254.056 220.277 254.207 220.211C254.357 220.146 254.489 220.045 254.592 219.917C254.695 219.79 254.766 219.64 254.799 219.479L259.82 194.521C259.858 194.333 259.843 194.138 259.775 193.958C259.707 193.779 259.59 193.622 259.437 193.506C259.285 193.39 259.102 193.32 258.911 193.303C258.72 193.286 258.528 193.323 258.357 193.411L258.022 193.582L232.205 206.744ZM232.414 208.209C232.31 208.161 232.221 208.085 232.158 207.989C232.095 207.893 232.06 207.781 232.058 207.665C232.055 207.55 232.085 207.437 232.144 207.338C232.203 207.24 232.289 207.159 232.391 207.107L258.2 193.949L258.543 193.774C258.646 193.722 258.761 193.7 258.875 193.711C258.989 193.721 259.099 193.763 259.19 193.833C259.282 193.902 259.352 193.996 259.393 194.103C259.433 194.21 259.443 194.327 259.421 194.439L254.4 219.398C254.38 219.494 254.337 219.584 254.276 219.661C254.214 219.737 254.134 219.798 254.044 219.837C253.954 219.876 253.855 219.893 253.757 219.886C253.659 219.879 253.564 219.848 253.48 219.797L243.819 213.835C243.724 213.775 243.62 213.732 243.51 213.708C243.353 213.671 243.189 213.674 243.033 213.715C243.011 213.72 242.989 213.727 242.967 213.734L242.965 213.734C242.8 213.788 242.652 213.883 242.535 214.011C242.417 214.138 242.334 214.293 242.293 214.461L241.505 217.734C241.476 217.865 241.404 217.982 241.301 218.066C241.197 218.151 241.068 218.198 240.935 218.2L240.931 218.2C240.796 218.208 240.664 218.17 240.554 218.092C240.444 218.014 240.365 217.902 240.328 217.772L238.268 211.251C238.247 211.182 238.218 211.115 238.182 211.052L238.182 211.05C238.148 210.99 238.107 210.934 238.061 210.882C238.017 210.831 237.967 210.786 237.913 210.745C237.852 210.7 237.787 210.662 237.718 210.631L232.414 208.209Z" fill="#E5E5E5"/>
<path d="M237.913 210.745L258.227 194.156C258.245 194.141 258.264 194.128 258.284 194.117C258.367 194.071 258.464 194.054 258.557 194.072C258.651 194.089 258.736 194.138 258.797 194.211C258.858 194.284 258.891 194.376 258.892 194.471C258.892 194.566 258.859 194.659 258.799 194.732L243.51 213.707L243.24 214.043L242.924 213.787L242.965 213.734L242.967 213.734L258.481 194.476L238.182 211.05L238.182 211.052L238.093 211.123L237.836 210.808L237.913 210.745Z" fill="#E5E5E5"/>
<path d="M388.234 76.384L381 67.0825L385.207 63.8106L388.632 68.2147L400.202 56L404.072 59.6658L388.234 76.384Z" fill="white"/>
</g>
<defs>
<clipPath id="clip0_106_13904">
<rect width="451" height="309.928" fill="white"/>
</clipPath>
</defs>
</svg>
