<svg xmlns="http://www.w3.org/2000/svg" width="17" height="17" viewBox="0 0 17 17" fill="none">
<path d="M7.26273 8.55414L0.275965 1.7157C-0.059 1.38937 -0.059 0.8611 0.275965 0.535605C0.610085 0.209278 1.15278 0.209278 1.4869 0.535605L8.46768 7.36822L15.513 0.433766C15.8471 0.104109 16.3898 0.104109 16.724 0.433766C17.0581 0.764256 17.0581 1.29919 16.724 1.62884L9.68376 8.55831L16.7494 15.4735C17.0835 15.7999 17.0835 16.3281 16.7494 16.6536C16.4153 16.98 15.8726 16.98 15.5385 16.6536L8.47882 9.74423L1.46153 16.6511C1.12741 16.9808 0.584709 16.9808 0.250589 16.6511C-0.0835304 16.3207 -0.0835304 15.7857 0.250589 15.4561L7.26273 8.55414Z" fill="#999999"/>
</svg>
