<svg width="32" height="32" viewBox="0 0 32 32" fill="none" xmlns="http://www.w3.org/2000/svg">
<rect width="32" height="32" rx="16" fill="#F6F6F7"/>
<g clip-path="url(#clip0_68_12924)">
<path d="M22.75 10.5938H18.9688V9.875C18.9688 8.84113 18.1276 8 17.0938 8H14.9062C13.8724 8 13.0312 8.84113 13.0312 9.875V10.5938H9.25C8.90481 10.5938 8.625 10.8736 8.625 11.2188C8.625 11.5639 8.90481 11.8438 9.25 11.8438H9.89725L10.6589 21.7183C10.6592 21.7212 10.6594 21.7241 10.6597 21.727C10.7164 22.3497 11.002 22.9247 11.4637 23.3463C11.9255 23.7678 12.5241 24 13.1493 24H18.8507C20.1528 24 21.2231 23.0302 21.3403 21.7443C21.3717 21.4005 21.1184 21.0964 20.7747 21.0651C20.4306 21.0338 20.1268 21.287 20.0955 21.6307C20.0373 22.2688 19.5022 22.75 18.8507 22.75H13.1493C12.5 22.75 11.9657 22.2634 11.9048 21.6174L11.151 11.8438H20.849L20.3152 18.7644C20.2887 19.1086 20.5462 19.4091 20.8903 19.4357C20.9067 19.4369 20.9229 19.4375 20.9391 19.4375C21.2624 19.4375 21.5363 19.1883 21.5615 18.8606L22.1027 11.8438H22.75C23.0952 11.8438 23.375 11.5639 23.375 11.2188C23.375 10.8736 23.0952 10.5938 22.75 10.5938ZM17.7188 10.5938H14.2812V9.875C14.2812 9.53038 14.5616 9.25 14.9062 9.25H17.0938C17.4384 9.25 17.7188 9.53038 17.7188 9.875V10.5938Z" fill="#86879D"/>
<path d="M13.1602 13.0944C12.8154 13.1095 12.548 13.4012 12.5631 13.7461L12.8756 20.9002C12.8903 21.2358 13.1669 21.498 13.4995 21.498C13.5087 21.498 13.518 21.4978 13.5273 21.4974C13.8721 21.4823 14.1395 21.1905 14.1244 20.8457L13.8119 13.6915C13.7969 13.3467 13.5045 13.0789 13.1602 13.0944Z" fill="#86879D"/>
<path d="M18.1881 13.6915L17.8756 20.8457C17.8605 21.1905 18.1279 21.4823 18.4727 21.4973C18.482 21.4978 18.4913 21.498 18.5005 21.498C18.8331 21.498 19.1098 21.2358 19.1244 20.9002L19.4369 13.7461C19.452 13.4012 19.1846 13.1094 18.8398 13.0944C18.4955 13.079 18.2032 13.3466 18.1881 13.6915Z" fill="#86879D"/>
<path d="M15.375 13.7188V20.8729C15.375 21.2181 15.6548 21.4979 16 21.4979C16.3452 21.4979 16.625 21.2181 16.625 20.8729V13.7188C16.625 13.3736 16.3452 13.0938 16 13.0938C15.6548 13.0938 15.375 13.3736 15.375 13.7188Z" fill="#86879D"/>
</g>
<defs>
<clipPath id="clip0_68_12924">
<rect width="16" height="16" fill="white" transform="translate(8 8)"/>
</clipPath>
</defs>
</svg>