<svg width="32" height="32" viewBox="0 0 32 32" fill="none" xmlns="http://www.w3.org/2000/svg">
<rect width="32" height="32" rx="16" fill="#F6F6F7"/>
<g clip-path="url(#clip0_21_6155)">
<path d="M23.0626 8.93769C22.458 8.333 21.654 8 20.799 8C19.9439 8 19.1399 8.333 18.5353 8.93766L9.58855 17.8844C9.51242 17.9605 9.45727 18.055 9.42839 18.1587L8.02314 23.2074C7.96255 23.4252 8.0242 23.6587 8.18449 23.8181C8.30324 23.9362 8.46236 24 8.6253 24C8.68224 24 8.73967 23.9922 8.79602 23.9762L13.8447 22.5421C14.0577 22.4816 14.2228 22.3129 14.2787 22.0986C14.3345 21.8843 14.2729 21.6565 14.1165 21.4996L10.9336 18.3071L18.3497 10.891L21.1078 13.649L15.4305 19.3109C15.1861 19.5546 15.1855 19.9503 15.4293 20.1947C15.673 20.4392 16.0688 20.4397 16.3132 20.196L23.0625 13.465C23.6672 12.8603 24.0002 12.0564 24.0002 11.2013C24.0002 10.3462 23.6672 9.54231 23.0626 8.93769ZM12.4813 21.6299L9.52608 22.4694L10.3537 19.4959L12.4813 21.6299ZM22.1793 12.5805L21.9929 12.7664L19.2336 10.0071L19.4192 9.82153C19.7877 9.45297 20.2777 9.25 20.799 9.25C21.3202 9.25 21.8101 9.45297 22.1787 9.82156C22.5473 10.1901 22.7502 10.6801 22.7502 11.2013C22.7502 11.7225 22.5473 12.2125 22.1793 12.5805Z" fill="#86879D"/>
</g>
<defs>
<clipPath id="clip0_21_6155">
<rect width="16" height="16" fill="white" transform="translate(8 8)"/>
</clipPath>
</defs>
</svg>