<svg width="20" height="20" viewBox="0 0 20 20" fill="none" xmlns="http://www.w3.org/2000/svg">
<path d="M18.125 7.49985V8.25493C18.125 8.94471 17.7463 9.57879 17.1389 9.90581L11.741 12.8124M1.875 7.49985V8.25493C1.875 8.94471 2.25373 9.57879 2.86106 9.90581L8.25895 12.8124M15.625 14.9037L11.741 12.8124M11.741 12.8124L10.8889 12.3535C10.334 12.0547 9.66602 12.0547 9.11106 12.3535L8.25895 12.8124M8.25895 12.8124L4.375 14.9037M18.125 16.2499C18.125 17.2854 17.2855 18.1249 16.25 18.1249H3.75C2.71447 18.1249 1.875 17.2854 1.875 16.2499L1.875 7.36978C1.875 6.68 2.25373 6.04592 2.86106 5.7189L9.11106 2.35351C9.66602 2.05469 10.334 2.05469 10.8889 2.35351L17.1389 5.7189C17.7463 6.04592 18.125 6.68 18.125 7.36978V16.2499Z" stroke="white" stroke-width="1.5" stroke-linecap="round" stroke-linejoin="round"/>
</svg>
