<svg width="32" height="32" viewBox="0 0 32 32" fill="none" xmlns="http://www.w3.org/2000/svg">
<rect width="32" height="32" rx="16" fill="#F6F6F7"/>
<path d="M15.9999 18.0003C17.3254 18.0003 18.4 16.9258 18.4 15.6003C18.4 14.2747 17.3254 13.2002 15.9999 13.2002C14.6744 13.2002 13.5999 14.2747 13.5999 15.6003C13.5999 16.9258 14.6744 18.0003 15.9999 18.0003Z" fill="#86879D"/>
<path d="M24.9643 15.3962C24.2585 13.5707 23.0334 11.9921 21.4402 10.8553C19.8471 9.71855 17.9557 9.07355 16 9C14.0443 9.07355 12.1529 9.71855 10.5598 10.8553C8.96661 11.9921 7.74146 13.5707 7.03575 15.3962C6.98808 15.528 6.98808 15.6724 7.03575 15.8042C7.74146 17.6297 8.96661 19.2083 10.5598 20.3451C12.1529 21.4818 14.0443 22.1268 16 22.2004C17.9557 22.1268 19.8471 21.4818 21.4402 20.3451C23.0334 19.2083 24.2585 17.6297 24.9643 15.8042C25.0119 15.6724 25.0119 15.528 24.9643 15.3962ZM16 19.5003C15.2286 19.5003 14.4746 19.2716 13.8332 18.843C13.1918 18.4145 12.692 17.8053 12.3968 17.0927C12.1016 16.38 12.0243 15.5959 12.1748 14.8393C12.3253 14.0828 12.6968 13.3878 13.2422 12.8424C13.7876 12.297 14.4826 11.9255 15.2391 11.775C15.9957 11.6245 16.7799 11.7018 17.4925 11.997C18.2052 12.2921 18.8143 12.792 19.2428 13.4334C19.6714 14.0748 19.9001 14.8288 19.9001 15.6002C19.8985 16.6341 19.4871 17.6252 18.756 18.3562C18.025 19.0873 17.0339 19.4987 16 19.5003Z" fill="#86879D"/>
</svg>