<svg width="17" height="16" viewBox="0 0 17 16" fill="none" xmlns="http://www.w3.org/2000/svg">
<path d="M15.7303 1.20473e-06H1.10873C0.850682 -0.000474686 0.61426 0.140071 0.496374 0.363897C0.376862 0.590737 0.397838 0.863897 0.55052 1.07107L5.90725 8.4329C5.90904 8.43544 5.91099 8.43782 5.91278 8.44036C6.10741 8.6967 6.21278 9.0073 6.21326 9.3263V15.3284C6.21212 15.506 6.28367 15.6769 6.41196 15.803C6.54042 15.9289 6.71505 16 6.89716 16C6.98968 15.9998 7.08139 15.9819 7.16692 15.9472L10.177 14.8276C10.4466 14.7471 10.6256 14.4989 10.6256 14.2V9.3263C10.6261 9.0073 10.7315 8.6967 10.9259 8.44036C10.9277 8.43782 10.9297 8.43544 10.9315 8.4329L16.2883 1.07091C16.441 0.863897 16.462 0.590896 16.3425 0.364056C16.2248 0.140071 15.9882 -0.000474686 15.7303 1.20473e-06Z" fill="#86879D"/>
</svg>