<svg width="20" height="20" viewBox="0 0 20 20" fill="none" xmlns="http://www.w3.org/2000/svg">
<g clip-path="url(#clip0_185_4449)">
<path d="M19.7731 9.2347L11.6329 1.04084C11.6224 1.03029 11.6116 1.02005 11.6006 1.01013C10.7117 0.212046 9.36856 0.209195 8.47629 1.00353C8.4652 1.01341 8.45441 1.02361 8.44391 1.03408L0.229493 9.23232C-0.075898 9.53716 -0.0764059 10.0318 0.228399 10.3372C0.533243 10.6426 1.02789 10.6431 1.33324 10.3383L1.95324 9.71951V16.465C1.95324 18.1881 3.35512 19.59 5.07824 19.59H7.89074C8.32223 19.59 8.67199 19.2402 8.67199 18.8087V12.4415H11.4064V18.8087C11.4064 19.2402 11.7561 19.59 12.1876 19.59H14.922C16.6451 19.59 18.047 18.1881 18.047 16.465C18.047 16.0335 17.6972 15.6837 17.2657 15.6837C16.8343 15.6837 16.4845 16.0335 16.4845 16.465C16.4845 17.3265 15.7836 18.0275 14.922 18.0275H12.9689V11.6603C12.9689 11.2288 12.6191 10.879 12.1876 10.879H7.89074C7.45926 10.879 7.10949 11.2288 7.10949 11.6603V18.0275H5.07824C4.21668 18.0275 3.51574 17.3265 3.51574 16.465V8.18373C3.51574 8.17591 3.51563 8.16814 3.51539 8.16041L9.52926 2.15841C9.82195 1.90986 10.2513 1.9108 10.5428 2.16056L16.4845 8.14142V12.5587C16.4845 12.9902 16.8343 13.34 17.2657 13.34C17.6972 13.34 18.047 12.9902 18.047 12.5587V9.7142L18.6646 10.336C18.8173 10.4897 19.018 10.5666 19.2189 10.5666C19.418 10.5666 19.6171 10.4909 19.7695 10.3395C20.0756 10.0354 20.0772 9.5408 19.7731 9.2347Z" fill="white"/>
</g>
<defs>
<clipPath id="clip0_185_4449">
<rect width="20" height="20" fill="white"/>
</clipPath>
</defs>
</svg>
