<svg width="20" height="20" viewBox="0 0 20 20" fill="none" xmlns="http://www.w3.org/2000/svg">
<path fill-rule="evenodd" clip-rule="evenodd" d="M18.3333 7.0835C18.3333 6.1585 17.5916 5.41683 16.6666 5.41683H13.3333V3.75016C13.3333 2.82516 12.5916 2.0835 11.6666 2.0835H8.33329C7.40829 2.0835 6.66663 2.82516 6.66663 3.75016V5.41683H3.33329C2.40829 5.41683 1.67496 6.1585 1.67496 7.0835L1.66663 16.2502C1.66663 17.1752 2.40829 17.9168 3.33329 17.9168H16.6666C17.5916 17.9168 18.3333 17.1752 18.3333 16.2502V7.0835ZM11.6666 5.41683V3.75016H8.33329V5.41683H11.6666ZM3.33329 7.0835V16.2502H16.6666V7.0835H3.33329Z" fill="white"/>
</svg>
