<svg width="16" height="16" viewBox="0 0 16 16" fill="none" xmlns="http://www.w3.org/2000/svg">
<path d="M7.04611 0C3.16099 0 0 3.16095 0 7.04602C0 10.9313 3.16099 14.092 7.04611 14.092C10.9315 14.092 14.0922 10.9313 14.0922 7.04602C14.0922 3.16095 10.9315 0 7.04611 0ZM7.04611 12.7913C3.87818 12.7913 1.30082 10.2139 1.30082 7.04605C1.30082 3.87817 3.87818 1.3008 7.04611 1.3008C10.214 1.3008 12.7914 3.87813 12.7914 7.04602C12.7914 10.2139 10.214 12.7913 7.04611 12.7913Z" fill="#86879D"/>
<path d="M15.8094 14.8898L12.0804 11.1608C11.8263 10.9067 11.4148 10.9067 11.1607 11.1608C10.9066 11.4147 10.9066 11.8266 11.1607 12.0805L14.8897 15.8094C15.0167 15.9365 15.183 16 15.3495 16C15.5158 16 15.6823 15.9365 15.8094 15.8094C16.0635 15.5556 16.0635 15.1436 15.8094 14.8898Z" fill="#86879D"/>
</svg>