<svg width="17" height="16" viewBox="0 0 17 16" fill="none" xmlns="http://www.w3.org/2000/svg">
<g clip-path="url(#clip0_264_4530)">
<path d="M1.04443 3.3125H8.32568C8.67087 3.3125 8.95068 3.03269 8.95068 2.6875C8.95068 2.34231 8.67087 2.0625 8.32568 2.0625H1.04443C0.699246 2.0625 0.419434 2.34231 0.419434 2.6875C0.419434 3.03269 0.699246 3.3125 1.04443 3.3125Z" fill="#86879D"/>
<path d="M12.0757 5.34375C13.1096 5.34375 13.9507 4.50262 13.9507 3.46875V3.3125H15.7944C16.1396 3.3125 16.4194 3.03269 16.4194 2.6875C16.4194 2.34231 16.1396 2.0625 15.7944 2.0625H13.9507V1.875C13.9507 0.841125 13.1096 0 12.0757 0C11.0418 0 10.2007 0.841125 10.2007 1.875V3.46875C10.2007 4.50262 11.0418 5.34375 12.0757 5.34375ZM11.4507 1.875C11.4507 1.53038 11.7311 1.25 12.0757 1.25C12.4203 1.25 12.7007 1.53038 12.7007 1.875V3.46875C12.7007 3.81337 12.4203 4.09375 12.0757 4.09375C11.7311 4.09375 11.4507 3.81337 11.4507 3.46875V1.875Z" fill="#86879D"/>
<path d="M8.32425 12.7188H1.04443C0.699246 12.7188 0.419434 12.9986 0.419434 13.3438C0.419434 13.6889 0.699246 13.9688 1.04443 13.9688H8.32425C8.66943 13.9688 8.94925 13.6889 8.94925 13.3438C8.94925 12.9986 8.66943 12.7188 8.32425 12.7188Z" fill="#86879D"/>
<path d="M1.04443 8.62109H2.82568C3.17087 8.62109 3.45068 8.34128 3.45068 7.99609C3.45068 7.65091 3.17087 7.37109 2.82568 7.37109H1.04443C0.699246 7.37109 0.419434 7.65091 0.419434 7.99609C0.419434 8.34128 0.699246 8.62109 1.04443 8.62109Z" fill="#86879D"/>
<path d="M15.7944 7.37119H8.45068V7.15625C8.45068 6.12238 7.60956 5.28125 6.57568 5.28125C5.54181 5.28125 4.70068 6.12238 4.70068 7.15625V8.78125C4.70068 9.81512 5.54181 10.6562 6.57568 10.6562C7.60956 10.6562 8.45068 9.81512 8.45068 8.78125V8.62119H15.7944C16.1396 8.62119 16.4194 8.34138 16.4194 7.99619C16.4194 7.65103 16.1396 7.37119 15.7944 7.37119ZM7.20068 8.78125C7.20068 9.12587 6.92031 9.40625 6.57568 9.40625C6.23106 9.40625 5.95068 9.12587 5.95068 8.78125V7.15625C5.95068 6.81163 6.23106 6.53125 6.57568 6.53125C6.92031 6.53125 7.20068 6.81163 7.20068 7.15625V8.78125Z" fill="#86879D"/>
<path d="M15.7944 12.7188H13.9492V12.5312C13.9492 11.4974 13.1081 10.6562 12.0742 10.6562C11.0403 10.6562 10.1992 11.4974 10.1992 12.5312V14.125C10.1992 15.1589 11.0403 16 12.0742 16C13.1081 16 13.9492 15.1589 13.9492 14.125V13.9688H15.7944C16.1396 13.9688 16.4194 13.6889 16.4194 13.3438C16.4194 12.9986 16.1396 12.7188 15.7944 12.7188ZM12.6992 14.125C12.6992 14.4696 12.4188 14.75 12.0742 14.75C11.7296 14.75 11.4492 14.4696 11.4492 14.125V12.5312C11.4492 12.1866 11.7296 11.9062 12.0742 11.9062C12.4188 11.9062 12.6992 12.1866 12.6992 12.5312V14.125Z" fill="#86879D"/>
</g>
<defs>
<clipPath id="clip0_264_4530">
<rect width="16" height="16" fill="white" transform="translate(0.419434)"/>
</clipPath>
</defs>
</svg>