<svg width="20" height="20" viewBox="0 0 20 20" fill="none" xmlns="http://www.w3.org/2000/svg">
<path d="M9.88281 3.64062H0.78125C0.625908 3.64062 0.5 3.51472 0.5 3.35938C0.5 3.20403 0.625908 3.07812 0.78125 3.07812H9.88281C10.0382 3.07812 10.1641 3.20403 10.1641 3.35938C10.1641 3.51472 10.0382 3.64062 9.88281 3.64062Z" fill="white" stroke="white"/>
<path d="M16.9141 3.64062H16.4141V4.14062V4.33594C16.4141 5.35214 15.5865 6.17969 14.5703 6.17969C13.5541 6.17969 12.7266 5.35214 12.7266 4.33594V2.34375C12.7266 1.32755 13.5541 0.5 14.5703 0.5C15.5865 0.5 16.4141 1.32755 16.4141 2.34375V2.57812V3.07812H16.9141H19.2188C19.3741 3.07812 19.5 3.20403 19.5 3.35938C19.5 3.51472 19.3741 3.64062 19.2188 3.64062H16.9141ZM14.5703 1.0625C13.8634 1.0625 13.2891 1.63683 13.2891 2.34375V4.33594C13.2891 5.04286 13.8634 5.61719 14.5703 5.61719C15.2772 5.61719 15.8516 5.04286 15.8516 4.33594V2.34375C15.8516 1.63683 15.2772 1.0625 14.5703 1.0625Z" fill="white" stroke="white"/>
<path d="M0.78125 16.3984H9.88102C10.0364 16.3984 10.1623 16.5243 10.1623 16.6797C10.1623 16.835 10.0364 16.9609 9.88102 16.9609H0.78125C0.625908 16.9609 0.5 16.835 0.5 16.6797C0.5 16.5243 0.625908 16.3984 0.78125 16.3984Z" fill="white" stroke="white"/>
<path d="M3.00781 10.2764H0.78125C0.625907 10.2764 0.5 10.1505 0.5 9.99512C0.5 9.83978 0.625908 9.71387 0.78125 9.71387H3.00781C3.16315 9.71387 3.28906 9.83978 3.28906 9.99512C3.28906 10.1505 3.16316 10.2764 3.00781 10.2764Z" fill="white" stroke="white"/>
<path d="M9.53906 9.21398V9.71398H10.0391H19.2188C19.3741 9.71398 19.5 9.83992 19.5 9.99523C19.5 10.1506 19.3741 10.2765 19.2188 10.2765H10.0391H9.53906V10.7765V10.9766C9.53906 11.9928 8.71151 12.8203 7.69531 12.8203C6.67911 12.8203 5.85156 11.9928 5.85156 10.9766V8.94531C5.85156 7.92911 6.67911 7.10156 7.69531 7.10156C8.71151 7.10156 9.53906 7.92911 9.53906 8.94531V9.21398ZM7.69531 12.2578C8.40224 12.2578 8.97656 11.6835 8.97656 10.9766V8.94531C8.97656 8.23839 8.40224 7.66406 7.69531 7.66406C6.98839 7.66406 6.41406 8.23839 6.41406 8.94531V10.9766C6.41406 11.6835 6.98839 12.2578 7.69531 12.2578Z" fill="white" stroke="white"/>
<path d="M16.4122 15.8984V16.3984H16.9122H19.2187C19.3741 16.3984 19.5 16.5243 19.5 16.6797C19.5 16.835 19.3741 16.9609 19.2187 16.9609H16.9122H16.4122V17.4609V17.6562C16.4122 18.6725 15.5847 19.5 14.5685 19.5C13.5523 19.5 12.7247 18.6725 12.7247 17.6562V15.6641C12.7247 14.6479 13.5523 13.8203 14.5685 13.8203C15.5847 13.8203 16.4122 14.6479 16.4122 15.6641V15.8984ZM14.5685 18.9375C15.2754 18.9375 15.8497 18.3632 15.8497 17.6562V15.6641C15.8497 14.9571 15.2754 14.3828 14.5685 14.3828C13.8616 14.3828 13.2872 14.9571 13.2872 15.6641V17.6562C13.2872 18.3632 13.8616 18.9375 14.5685 18.9375Z" fill="white" stroke="white"/>
</svg>
