<svg width="17" height="16" viewBox="0 0 17 16" fill="none" xmlns="http://www.w3.org/2000/svg">
<path d="M8.5689 6.85753H12.6397C12.7245 6.85753 12.7942 6.83079 12.8485 6.77716C12.9031 6.72359 12.9304 6.65519 12.9304 6.57179V4.85752C12.9304 4.77411 12.9031 4.70572 12.8485 4.65215C12.7942 4.59864 12.7245 4.57178 12.6397 4.57178H8.5689C8.48405 4.57178 8.41445 4.59852 8.3599 4.65215C8.30547 4.70572 8.27817 4.77411 8.27817 4.85752V6.57179C8.27817 6.65519 8.30538 6.72359 8.3599 6.77716C8.41445 6.8307 8.48405 6.85753 8.5689 6.85753Z" fill="#86879D"/>
<path d="M8.56875 2.28572H10.8948C10.9797 2.28572 11.0494 2.25898 11.1037 2.20541C11.1584 2.15181 11.1853 2.08341 11.1853 2.00004V0.285711C11.1853 0.202431 11.1584 0.133943 11.1037 0.0803406C11.0494 0.0268636 10.9797 0 10.8948 0H8.56875C8.4839 0 8.41429 0.0267385 8.35974 0.0803093C8.30535 0.133943 8.27802 0.202431 8.27802 0.28568V2.00001C8.27802 2.08338 8.30523 2.15178 8.35974 2.20538C8.41433 2.25886 8.4839 2.28572 8.56875 2.28572Z" fill="#86879D"/>
<path d="M6.53271 12.5715H4.7881V0.285711C4.7881 0.202431 4.76092 0.133849 4.70637 0.0803406C4.65182 0.0268636 4.58221 0 4.49733 0H2.75268C2.66793 0 2.59813 0.0267385 2.54368 0.0803093C2.48929 0.133943 2.46195 0.202431 2.46195 0.28568V12.5715H0.717301C0.58414 12.5715 0.493244 12.631 0.444741 12.75C0.396206 12.8632 0.41753 12.9673 0.508298 13.0626L3.41597 15.9199C3.48262 15.9732 3.55222 16 3.62498 16C3.70371 16 3.77345 15.9732 3.83398 15.9199L6.73258 13.0716C6.79324 13.0003 6.82348 12.9286 6.82348 12.8575C6.82348 12.7738 6.79614 12.7056 6.74175 12.6516C6.68723 12.5983 6.61763 12.5715 6.53271 12.5715Z" fill="#86879D"/>
<path d="M16.3379 13.7948C16.2833 13.7411 16.2137 13.7144 16.1289 13.7144H8.5689C8.48405 13.7144 8.41445 13.7411 8.3599 13.7948C8.30551 13.8483 8.27817 13.9168 8.27817 14.0001V15.7143C8.27817 15.7979 8.30538 15.8661 8.3599 15.9198C8.41448 15.9733 8.48405 16.0001 8.5689 16.0001H16.1289C16.2137 16.0001 16.2833 15.9733 16.3379 15.9198C16.3923 15.8661 16.4195 15.7979 16.4195 15.7143V14.0001C16.4197 13.9168 16.3923 13.8483 16.3379 13.7948Z" fill="#86879D"/>
<path d="M8.5689 11.4285H14.3844C14.4691 11.4285 14.5388 11.4018 14.5935 11.3483C14.6478 11.2948 14.675 11.2263 14.675 11.143V9.42856C14.675 9.34531 14.6478 9.27679 14.5935 9.22331C14.5388 9.1698 14.4691 9.14307 14.3844 9.14307H8.5689C8.48405 9.14307 8.41445 9.1698 8.3599 9.22331C8.30547 9.27682 8.27817 9.34531 8.27817 9.42856V11.143C8.27817 11.2263 8.30538 11.2948 8.3599 11.3483C8.41445 11.4018 8.48405 11.4285 8.5689 11.4285Z" fill="#86879D"/>
</svg>