<svg width="49" height="49" viewBox="0 0 49 49" fill="none" xmlns="http://www.w3.org/2000/svg">
<path d="M25.3164 0.982699C11.8194 0.800399 0.800644 11.8191 0.982943 25.3162C1.16293 38.2606 11.7028 48.8005 24.6472 48.9805C38.1466 49.1651 49.163 38.1464 48.9784 24.6493C48.8007 11.7026 38.2608 1.16269 25.3164 0.982699ZM39.9027 38.7406C39.8567 38.7903 39.8004 38.8293 39.7377 38.8548C39.675 38.8803 39.6074 38.8917 39.5398 38.8881C39.4722 38.8846 39.4062 38.8663 39.3465 38.8344C39.2868 38.8025 39.2348 38.7579 39.1943 38.7037C38.1622 37.3534 36.8984 36.1974 35.4617 35.2896C32.5242 33.4043 28.802 32.3659 24.9818 32.3659C21.1616 32.3659 17.4395 33.4043 14.5019 35.2896C13.0653 36.197 11.8015 37.3526 10.7694 38.7025C10.7289 38.7567 10.6769 38.8013 10.6172 38.8332C10.5575 38.8651 10.4915 38.8835 10.4239 38.887C10.3562 38.8905 10.2887 38.8791 10.226 38.8536C10.1633 38.8281 10.1069 38.7891 10.061 38.7394C6.67538 35.0846 4.75757 30.309 4.67508 25.3277C4.48701 14.1002 13.7001 4.70253 24.9322 4.67484C36.1644 4.64715 45.2886 13.7679 45.2886 24.9816C45.2925 30.083 43.3687 34.9975 39.9027 38.7406Z" fill="#031F68"/>
<path d="M24.9819 12.0591C22.7067 12.0591 20.6495 12.9117 19.1876 14.4613C17.7257 16.0108 16.9954 18.1534 17.1604 20.4529C17.495 24.9816 21.0037 28.6737 24.9819 28.6737C28.9602 28.6737 32.462 24.9816 32.8035 20.4541C32.9743 18.1765 32.2497 16.0535 30.7636 14.4751C29.296 12.9175 27.2422 12.0591 24.9819 12.0591Z" fill="#031F68"/>
</svg>