<svg width="52" height="56" viewBox="0 0 52 56" fill="none" xmlns="http://www.w3.org/2000/svg">
<path d="M16.7692 46.3077V53.6923V46.3077ZM5.69231 2H27.8462C28.8254 2 29.7646 2.38901 30.457 3.08145C31.1495 3.77389 31.5385 4.71305 31.5385 5.69231V53.2308C31.5385 53.3532 31.4898 53.4706 31.4033 53.5571C31.3167 53.6437 31.1993 53.6923 31.0769 53.6923H2V5.69231C2 4.71305 2.38901 3.77389 3.08145 3.08145C3.77389 2.38901 4.71305 2 5.69231 2V2ZM33.3846 20.4615H46.3077C47.287 20.4615 48.2261 20.8505 48.9185 21.543C49.611 22.2354 50 23.1746 50 24.1538V53.6923H31.5385V22.3077C31.5385 21.8181 31.733 21.3485 32.0792 21.0023C32.4254 20.656 32.895 20.4615 33.3846 20.4615Z" stroke="#031F68" stroke-width="4" stroke-linecap="round" stroke-linejoin="round"/>
<path d="M7.77844 48.1389C7.39609 48.1889 7.00767 48.1179 6.66771 47.9359C6.32776 47.7539 6.05332 47.47 5.88291 47.1241C5.71251 46.7782 5.6547 46.3876 5.7176 46.0072C5.78049 45.6267 5.96093 45.2755 6.2336 45.0029C6.50626 44.7302 6.85747 44.5498 7.23791 44.4869C7.61835 44.424 8.00894 44.4818 8.35485 44.6522C8.70077 44.8226 8.98464 45.097 9.16663 45.437C9.34862 45.7769 9.4196 46.1654 9.36959 46.5477C9.31682 46.9512 9.13221 47.326 8.84446 47.6137C8.5567 47.9015 8.18194 48.0861 7.77844 48.1389ZM7.77844 38.9081C7.39609 38.9581 7.00767 38.8871 6.66771 38.7051C6.32776 38.5231 6.05332 38.2393 5.88291 37.8934C5.71251 37.5474 5.6547 37.1568 5.7176 36.7764C5.78049 36.396 5.96093 36.0448 6.2336 35.7721C6.50626 35.4994 6.85747 35.319 7.23791 35.2561C7.61835 35.1932 8.00894 35.251 8.35485 35.4214C8.70077 35.5918 8.98464 35.8663 9.16663 36.2062C9.34862 36.5462 9.4196 36.9346 9.36959 37.3169C9.31682 37.7204 9.13221 38.0952 8.84446 38.383C8.5567 38.6707 8.18194 38.8553 7.77844 38.9081ZM7.77844 29.6773C7.39609 29.7273 7.00767 29.6564 6.66771 29.4744C6.32776 29.2924 6.05332 29.0085 5.88291 28.6626C5.71251 28.3167 5.6547 27.9261 5.7176 27.5456C5.78049 27.1652 5.96093 26.814 6.2336 26.5413C6.50626 26.2687 6.85747 26.0882 7.23791 26.0253C7.61835 25.9624 8.00894 26.0202 8.35485 26.1906C8.70077 26.361 8.98464 26.6355 9.16663 26.9754C9.34862 27.3154 9.4196 27.7038 9.36959 28.0862C9.31682 28.4897 9.13221 28.8644 8.84446 29.1522C8.5567 29.4399 8.18194 29.6245 7.77844 29.6773ZM7.77844 20.4466C7.39609 20.4966 7.00767 20.4256 6.66771 20.2436C6.32776 20.0616 6.05332 19.7777 5.88291 19.4318C5.71251 19.0859 5.6547 18.6953 5.7176 18.3149C5.78049 17.9344 5.96093 17.5832 6.2336 17.3106C6.50626 17.0379 6.85747 16.8575 7.23791 16.7946C7.61835 16.7317 8.00894 16.7895 8.35485 16.9599C8.70077 17.1303 8.98464 17.4047 9.16663 17.7447C9.34862 18.0846 9.4196 18.473 9.36959 18.8554C9.31682 19.2589 9.13221 19.6337 8.84446 19.9214C8.5567 20.2092 8.18194 20.3938 7.77844 20.4466ZM7.77844 11.2158C7.39609 11.2658 7.00767 11.1948 6.66771 11.0128C6.32776 10.8308 6.05332 10.547 5.88291 10.201C5.71251 9.85513 5.6547 9.46454 5.7176 9.0841C5.78049 8.70366 5.96093 8.35246 6.2336 8.07979C6.50626 7.80712 6.85747 7.62668 7.23791 7.56379C7.61835 7.50089 8.00894 7.5587 8.35485 7.72911C8.70077 7.89951 8.98464 8.17395 9.16663 8.51391C9.34862 8.85387 9.4196 9.24228 9.36959 9.62463C9.31682 10.0281 9.13221 10.4029 8.84446 10.6906C8.5567 10.9784 8.18194 11.163 7.77844 11.2158ZM17.0092 38.9081C16.6269 38.9581 16.2384 38.8871 15.8985 38.7051C15.5585 38.5231 15.2841 38.2393 15.1137 37.8934C14.9433 37.5474 14.8855 37.1568 14.9484 36.7764C15.0113 36.396 15.1917 36.0448 15.4644 35.7721C15.737 35.4994 16.0882 35.319 16.4687 35.2561C16.8491 35.1932 17.2397 35.251 17.5856 35.4214C17.9315 35.5918 18.2154 35.8663 18.3974 36.2062C18.5794 36.5462 18.6504 36.9346 18.6004 37.3169C18.5476 37.7204 18.363 38.0952 18.0752 38.383C17.7875 38.6707 17.4127 38.8553 17.0092 38.9081ZM17.0092 29.6773C16.6269 29.7273 16.2384 29.6564 15.8985 29.4744C15.5585 29.2924 15.2841 29.0085 15.1137 28.6626C14.9433 28.3167 14.8855 27.9261 14.9484 27.5456C15.0113 27.1652 15.1917 26.814 15.4644 26.5413C15.737 26.2687 16.0882 26.0882 16.4687 26.0253C16.8491 25.9624 17.2397 26.0202 17.5856 26.1906C17.9315 26.361 18.2154 26.6355 18.3974 26.9754C18.5794 27.3154 18.6504 27.7038 18.6004 28.0862C18.5476 28.4897 18.363 28.8644 18.0752 29.1522C17.7875 29.4399 17.4127 29.6245 17.0092 29.6773ZM17.0092 20.4466C16.6269 20.4966 16.2384 20.4256 15.8985 20.2436C15.5585 20.0616 15.2841 19.7777 15.1137 19.4318C14.9433 19.0859 14.8855 18.6953 14.9484 18.3149C15.0113 17.9344 15.1917 17.5832 15.4644 17.3106C15.737 17.0379 16.0882 16.8575 16.4687 16.7946C16.8491 16.7317 17.2397 16.7895 17.5856 16.9599C17.9315 17.1303 18.2154 17.4047 18.3974 17.7447C18.5794 18.0846 18.6504 18.473 18.6004 18.8554C18.5476 19.2589 18.363 19.6337 18.0752 19.9214C17.7875 20.2092 17.4127 20.3938 17.0092 20.4466ZM17.0092 11.2158C16.6269 11.2658 16.2384 11.1948 15.8985 11.0128C15.5585 10.8308 15.2841 10.547 15.1137 10.201C14.9433 9.85513 14.8855 9.46454 14.9484 9.0841C15.0113 8.70366 15.1917 8.35246 15.4644 8.07979C15.737 7.80712 16.0882 7.62668 16.4687 7.56379C16.8491 7.50089 17.2397 7.5587 17.5856 7.72911C17.9315 7.89951 18.2154 8.17395 18.3974 8.51391C18.5794 8.85387 18.6504 9.24228 18.6004 9.62463C18.5476 10.0281 18.363 10.4029 18.0752 10.6906C17.7875 10.9784 17.4127 11.163 17.0092 11.2158ZM26.24 48.1389C25.8576 48.1889 25.4692 48.1179 25.1293 47.9359C24.7893 47.7539 24.5149 47.47 24.3445 47.1241C24.1741 46.7782 24.1162 46.3876 24.1791 46.0072C24.242 45.6267 24.4225 45.2755 24.6951 45.0029C24.9678 44.7302 25.319 44.5498 25.6994 44.4869C26.0799 44.424 26.4705 44.4818 26.8164 44.6522C27.1623 44.8226 27.4462 45.097 27.6282 45.437C27.8102 45.7769 27.8811 46.1654 27.8311 46.5477C27.7784 46.9512 27.5937 47.326 27.306 47.6137C27.0182 47.9015 26.6435 48.0861 26.24 48.1389ZM26.24 38.9081C25.8576 38.9581 25.4692 38.8871 25.1293 38.7051C24.7893 38.5231 24.5149 38.2393 24.3445 37.8934C24.1741 37.5474 24.1162 37.1568 24.1791 36.7764C24.242 36.396 24.4225 36.0448 24.6951 35.7721C24.9678 35.4994 25.319 35.319 25.6994 35.2561C26.0799 35.1932 26.4705 35.251 26.8164 35.4214C27.1623 35.5918 27.4462 35.8663 27.6282 36.2062C27.8102 36.5462 27.8811 36.9346 27.8311 37.3169C27.7784 37.7204 27.5937 38.0952 27.306 38.383C27.0182 38.6707 26.6435 38.8553 26.24 38.9081ZM26.24 29.6773C25.8576 29.7273 25.4692 29.6564 25.1293 29.4744C24.7893 29.2924 24.5149 29.0085 24.3445 28.6626C24.1741 28.3167 24.1162 27.9261 24.1791 27.5456C24.242 27.1652 24.4225 26.814 24.6951 26.5413C24.9678 26.2687 25.319 26.0882 25.6994 26.0253C26.0799 25.9624 26.4705 26.0202 26.8164 26.1906C27.1623 26.361 27.4462 26.6355 27.6282 26.9754C27.8102 27.3154 27.8811 27.7038 27.8311 28.0862C27.7784 28.4897 27.5937 28.8644 27.306 29.1522C27.0182 29.4399 26.6435 29.6245 26.24 29.6773Z" fill="#031F68"/>
<path d="M27.308 19.9223C28.0267 19.2036 28.0238 18.0354 27.3014 17.3131C26.5791 16.5908 25.4109 16.5878 24.6922 17.3066C23.9735 18.0253 23.9764 19.1935 24.6987 19.9158C25.4211 20.6381 26.5893 20.641 27.308 19.9223Z" fill="#031F68"/>
<path d="M26.2401 11.2158C25.8578 11.2658 25.4693 11.1948 25.1294 11.0128C24.7894 10.8308 24.515 10.547 24.3446 10.201C24.1742 9.85513 24.1164 9.46454 24.1793 9.0841C24.2422 8.70366 24.4226 8.35246 24.6953 8.07979C24.9679 7.80712 25.3191 7.62668 25.6996 7.56379C26.08 7.50089 26.4706 7.5587 26.8165 7.72911C27.1624 7.89951 27.4463 8.17395 27.6283 8.51391C27.8103 8.85387 27.8813 9.24228 27.8313 9.62463C27.7785 10.0281 27.5939 10.4029 27.3061 10.6906C27.0184 10.9784 26.6436 11.163 26.2401 11.2158ZM42.6155 44.4616C42.2504 44.4616 41.8934 44.5698 41.5898 44.7727C41.2862 44.9755 41.0496 45.2639 40.9099 45.6012C40.7701 45.9386 40.7336 46.3098 40.8048 46.6679C40.876 47.026 41.0519 47.3549 41.3101 47.6131C41.5683 47.8713 41.8972 48.0472 42.2553 48.1184C42.6134 48.1896 42.9846 48.1531 43.322 48.0133C43.6593 47.8736 43.9477 47.637 44.1505 47.3334C44.3534 47.0298 44.4616 46.6728 44.4616 46.3077C44.4616 45.8181 44.2671 45.3485 43.9209 45.0023C43.5747 44.6561 43.1051 44.4616 42.6155 44.4616ZM42.6155 35.2308C42.2504 35.2308 41.8934 35.3391 41.5898 35.5419C41.2862 35.7448 41.0496 36.0331 40.9099 36.3704C40.7701 36.7078 40.7336 37.079 40.8048 37.4371C40.876 37.7952 41.0519 38.1242 41.3101 38.3824C41.5683 38.6406 41.8972 38.8164 42.2553 38.8876C42.6134 38.9589 42.9846 38.9223 43.322 38.7826C43.6593 38.6428 43.9477 38.4062 44.1505 38.1026C44.3534 37.799 44.4616 37.4421 44.4616 37.0769C44.4616 36.5873 44.2671 36.1177 43.9209 35.7715C43.5747 35.4253 43.1051 35.2308 42.6155 35.2308ZM42.6155 26C42.2504 26 41.8934 26.1083 41.5898 26.3111C41.2862 26.514 41.0496 26.8023 40.9099 27.1397C40.7701 27.477 40.7336 27.8482 40.8048 28.2063C40.876 28.5645 41.0519 28.8934 41.3101 29.1516C41.5683 29.4098 41.8972 29.5856 42.2553 29.6568C42.6134 29.7281 42.9846 29.6915 43.322 29.5518C43.6593 29.4121 43.9477 29.1754 44.1505 28.8718C44.3534 28.5682 44.4616 28.2113 44.4616 27.8462C44.4616 27.3565 44.2671 26.887 43.9209 26.5407C43.5747 26.1945 43.1051 26 42.6155 26ZM35.2309 44.4616C34.8657 44.4616 34.5088 44.5698 34.2052 44.7727C33.9016 44.9755 33.665 45.2639 33.5253 45.6012C33.3855 45.9386 33.349 46.3098 33.4202 46.6679C33.4914 47.026 33.6673 47.3549 33.9254 47.6131C34.1836 47.8713 34.5126 48.0472 34.8707 48.1184C35.2288 48.1896 35.6 48.1531 35.9374 48.0133C36.2747 47.8736 36.563 47.637 36.7659 47.3334C36.9688 47.0298 37.077 46.6728 37.077 46.3077C37.077 45.8181 36.8825 45.3485 36.5363 45.0023C36.1901 44.6561 35.7205 44.4616 35.2309 44.4616ZM35.2309 35.2308C34.8657 35.2308 34.5088 35.3391 34.2052 35.5419C33.9016 35.7448 33.665 36.0331 33.5253 36.3704C33.3855 36.7078 33.349 37.079 33.4202 37.4371C33.4914 37.7952 33.6673 38.1242 33.9254 38.3824C34.1836 38.6406 34.5126 38.8164 34.8707 38.8876C35.2288 38.9589 35.6 38.9223 35.9374 38.7826C36.2747 38.6428 36.563 38.4062 36.7659 38.1026C36.9688 37.799 37.077 37.4421 37.077 37.0769C37.077 36.5873 36.8825 36.1177 36.5363 35.7715C36.1901 35.4253 35.7205 35.2308 35.2309 35.2308ZM35.2309 26C34.8657 26 34.5088 26.1083 34.2052 26.3111C33.9016 26.514 33.665 26.8023 33.5253 27.1397C33.3855 27.477 33.349 27.8482 33.4202 28.2063C33.4914 28.5645 33.6673 28.8934 33.9254 29.1516C34.1836 29.4098 34.5126 29.5856 34.8707 29.6568C35.2288 29.7281 35.6 29.6915 35.9374 29.5518C36.2747 29.4121 36.563 29.1754 36.7659 28.8718C36.9688 28.5682 37.077 28.2113 37.077 27.8462C37.077 27.3565 36.8825 26.887 36.5363 26.5407C36.1901 26.1945 35.7205 26 35.2309 26Z" fill="#031F68"/>
</svg>