<svg width="48" height="48" viewBox="0 0 48 48" fill="none" xmlns="http://www.w3.org/2000/svg">
<g clip-path="url(#clip0_32_16352)">
<path d="M42.375 36.75C41.4529 36.75 40.5824 36.9745 39.8137 37.3696L35.6199 33.1758C37.6179 30.6508 38.8125 27.4625 38.8125 24C38.8125 20.5906 37.6542 17.447 35.7107 14.9407L39.9514 10.7003C40.6857 11.0522 41.5078 11.25 42.375 11.25C43.4106 11.25 44.25 10.4106 44.25 9.375C44.25 8.33936 43.4106 7.5 42.375 7.5C41.3412 7.5 40.5 6.65881 40.5 5.625C40.5 4.59119 41.3412 3.75 42.375 3.75C43.4088 3.75 44.25 4.59119 44.25 5.625C44.25 6.66064 45.0894 7.5 46.125 7.5C47.1606 7.5 48 6.66064 48 5.625C48 2.52319 45.4768 0 42.375 0C39.2732 0 36.75 2.52319 36.75 5.625C36.75 6.49219 36.9478 7.31433 37.2997 8.04858L33.0593 12.2893C30.553 10.3462 27.4094 9.1875 24 9.1875C20.5375 9.1875 17.3489 10.3821 14.8242 12.3801L10.6304 8.18628C11.0255 7.4176 11.25 6.54749 11.25 5.625C11.25 2.52319 8.72681 0 5.625 0C2.52319 0 0 2.52319 0 5.625C0 8.72681 2.52319 11.25 5.625 11.25C6.43652 11.25 7.20813 11.0757 7.90576 10.7651L12.1989 15.0582C10.3103 17.5452 9.1875 20.6437 9.1875 24C9.1875 27.4094 10.3458 30.553 12.2893 33.059L8.04858 37.2997C7.31433 36.9478 6.49219 36.75 5.625 36.75C2.52319 36.75 0 39.2732 0 42.375C0 45.4768 2.52319 48 5.625 48C6.66064 48 7.5 47.1606 7.5 46.125C7.5 45.0894 6.66064 44.25 5.625 44.25C4.59119 44.25 3.75 43.4088 3.75 42.375C3.75 41.3412 4.59119 40.5 5.625 40.5C6.65881 40.5 7.5 41.3412 7.5 42.375C7.5 43.4106 8.33936 44.25 9.375 44.25C10.4106 44.25 11.25 43.4106 11.25 42.375C11.25 41.5078 11.0522 40.6857 10.7003 39.9514L14.941 35.7107C17.447 37.6538 20.5906 38.8125 24 38.8125C27.3563 38.8125 30.4552 37.6897 32.9418 35.8011L37.2349 40.0942C36.9243 40.7919 36.75 41.5635 36.75 42.375C36.75 45.4768 39.2732 48 42.375 48C43.4106 48 44.25 47.1606 44.25 46.125C44.25 45.0894 43.4106 44.25 42.375 44.25C41.3412 44.25 40.5 43.4088 40.5 42.375C40.5 41.3412 41.3412 40.5 42.375 40.5C43.4088 40.5 44.25 41.3412 44.25 42.375C44.25 43.4106 45.0894 44.25 46.125 44.25C47.1606 44.25 48 43.4106 48 42.375C48 39.2732 45.4768 36.75 42.375 36.75ZM35.0625 24C35.0625 26.6345 34.1364 29.0566 32.5931 30.9584C31.8453 29.1141 30.5208 27.5632 28.8435 26.5309C29.684 25.4744 30.1875 24.1392 30.1875 22.6875C30.1875 19.2755 27.412 16.5 24 16.5C20.588 16.5 17.8125 19.2755 17.8125 22.6875C17.8125 24.1392 18.316 25.4744 19.1565 26.5309C17.4792 27.5632 16.1547 29.1141 15.4069 30.9584C13.8636 29.0566 12.9375 26.6345 12.9375 24C12.9375 17.9 17.9 12.9375 24 12.9375C30.1 12.9375 35.0625 17.9 35.0625 24ZM24 25.125C22.656 25.125 21.5625 24.0315 21.5625 22.6875C21.5625 21.3435 22.656 20.25 24 20.25C25.344 20.25 26.4375 21.3435 26.4375 22.6875C26.4375 24.0315 25.344 25.125 24 25.125ZM3.75 5.625C3.75 4.59119 4.59119 3.75 5.625 3.75C6.65881 3.75 7.5 4.59119 7.5 5.625C7.5 6.65881 6.65881 7.5 5.625 7.5C4.59119 7.5 3.75 6.65881 3.75 5.625ZM18.542 33.6193C18.9349 30.9595 21.2325 28.9113 24 28.9113C26.7675 28.9113 29.0651 30.9595 29.458 33.6193C27.8463 34.5374 25.9834 35.0625 24 35.0625C22.0166 35.0625 20.1537 34.5374 18.542 33.6193Z" fill="#031F68"/>
</g>
<defs>
<clipPath id="clip0_32_16352">
<rect width="48" height="48" fill="white"/>
</clipPath>
</defs>
</svg>